<mxfile host="app.diagrams.net" modified="2023-05-31T02:00:47.742Z" agent="Mozilla/5.0 (Windows NT 10.0; Win64; x64) AppleWebKit/537.36 (KHTML, like Gecko) Chrome/113.0.0.0 Safari/537.36" etag="z8uXqYYNnrusLBtbuOTx" version="21.3.6" type="google">
  <diagram id="VuJIvxNyHGlMocWKOjii" name="PÃ¡gina-1">
    <mxGraphModel dx="1434" dy="739" grid="1" gridSize="10" guides="1" tooltips="1" connect="1" arrows="1" fold="1" page="1" pageScale="1" pageWidth="827" pageHeight="1169" math="0" shadow="0">
      <root>
        <mxCell id="0" />
        <mxCell id="1" parent="0" />
        <mxCell id="8XKfCKsSzNNgbXioAJdh-1" value="" style="edgeStyle=orthogonalEdgeStyle;rounded=0;orthogonalLoop=1;jettySize=auto;html=1;fontSize=8;" parent="1" source="8XKfCKsSzNNgbXioAJdh-2" edge="1">
          <mxGeometry relative="1" as="geometry">
            <mxPoint x="275.47" y="185.04761904761904" as="targetPoint" />
          </mxGeometry>
        </mxCell>
        <mxCell id="8XKfCKsSzNNgbXioAJdh-2" value="" style="shape=image;verticalLabelPosition=bottom;labelBackgroundColor=default;verticalAlign=top;aspect=fixed;imageAspect=0;image=data:image/png,iVBORw0KGgoAAAANSUhEUgAAAkoAAADqCAYAAABdoGpeAAAgAElEQVR4nO3de3hU9YH/8c/kNpP7BQKBENCgYgQrF30odR/EdbVUqTdYqmirKK60skW7FettXSui4q2uoYUVxdoWW1ZaUfFaq/Jbq1S5tSCCEgkhGJKQTCbJZCa3+f1xMpOZJAdymTMzhPfreXge5sw53+/3HHie+Tzf27H5fD6fAAAA0E1ctBsAAAAQqwhKAAAAJghKAAAAJghKAAAAJghKAAAAJghKAAAAJghKAAAAJghKAAAAJghKAAAAJghKAAAAJghKAAAAJghKAAAAJghKAAAAJghKAAAAJghKAAAAJghKAAAAJghKAAAAJghKAAAAJghKAAAAJghKAAAAJghKAAAAJghKAAAAJghKAAAAJghKAAAAJghKAAAAJghKAAAAJghKAAAAJghKAAAAJghKAAAAJghKAAAAJghKAAAAJghKAAAAJghKAAAAJghKAAAAJmIuKHn3rtd9c6eq8LQzdMPL1dFuDgAAOIFZG5Qq1uuG085QYY9/HtXWrufXvqM7bi/RzNWbVbL3Mz333aGWNi9i2qr10eolmjN9Use9T9VFVy7Wii310W6ZpO1a1tO/RVSUaPXMSbpm3cEBlVK1fqEKl28PU5sAACeyBMtrmP6ANq+erdxenFr1wXpVXXOPpmV0HIi3smER4t6uZVfeI9dNj+pX7yxXrt047C3dra1t0W1a7MnXtJt+rIJJvfnfAgCA9WJq6K1s7yaNHztqYIXsXas5q2KnN2HXmiX68oaVenh2USAkSZJ9TJGmFaZHr2Exya7xs+fr24X2Y58KAEAExFRQCov6cm2ti3Yj/Eq09d18zTx3gOEPAABExeALSjHHJa832m0AAAD9ERNBaetyY4L3nNXS6qv9k70Xal1F0EkVm7V6yTxNnWh8P3HuEq3+OGhVnH/i+NVrpNXzOieNd0zqrVq/UDesN1tFZz6huerDNbr16ukq6piEPWfJGn1U1ds7K9Tkb3u1+g+b1eus1FavXa89qh/ONFb+FU6crhuWv6Yv3V3a1c/7GbCOienX+Nt32lRdNH+pfrPdfIVi1fa1um/+LE30n3/Lo3plr7eHe6jWugVd/t23PGr8G7bVa9f6pYEJ8UXT5+m+9SW9f64AAPRDTASlyUs+U8nez/TSAmnBi8bfS/au1Ny8jhPK1+uGuWtl/8Eqbd5ufL991Tx5n7pEt77RsXIsb7ae2/uZSl6cLy1Y21HGZypZMrHf7Spbv1Cz1tl10y83affez1Syd7Oe+16zHp+1RG/V9q6M8d9/VHP//mPNuec1lR1z8rZXWx+/Xj/7x1TdtcFY+Vey5R3ddcZm/ejKVdoV7cnf7u1adsn12pA9X7/a2NG+vZv16tJZ8q65Ujes775arWz9Qs1a49VlD72m7R3nv710lupWLFTxP3obc1zaWny7NmRfr9+9t00lez/T7neWavw7V+uHPdQ5KBYBAABigvVBadO9mtrT9gC9Xb7dtlsrblyv859/St+fEDT5OXuibvnlvfIuX2tNgNi9Sjf+Ybp+98Q8jc/uPJwx5WY9d69Xy9bu7l05KUW65bcbdVfuWl30rfla8aF5z4vrjXt1g3uxXrpzugr885nj7Tpl1gN68rvrVfxGNLcTqNdb99ws713r9fDsImUEhRF7/kQteOJ5nf+HhVoR/FgCz3C+JucFHc8u0veXL1bGx5t7V/Xa27Vh0lO6659Hye6v116ouQ/dK3vxRu3qcnpuwViNH5HRtRQAAPrM+qA0/QFt9vfuBP/pZU+P9+P1Kv7mQs0t7OHL7Av1vfPW6/294W2y5NVHL63UtEWzdUoPvRMZF87WjJc2dfuBNhU/VNMWr9Xm52epbPmFmjh/jba6up50UBvW7NN//GC6elrzNf471+vgXz5Wt8sipfRVPXNwsRZMN1mRFl+ouYu+qeJXOwPw1lef07TFPT9D2Sdq7g1Te1d39g2a21O92RN1fsE27aro/lVuCkEJADBwMTH0djRf7tykaWee0WN4kOwaNTZdW/aEewfvEm39y1SNP80kFNhH6ZTsbdrX67lKhoyi2Xr4j5v0uwu364YLF+uV8qAvXbu1Zfs3Nb6nQChJ+aM0+S+f6cu+VRk2rs+2q+qCSSo4yjn2sUWavHefjMdSol0fT9IUs2coyRHfy20AzivSKT2XICX1rggAAPrD+g0nB8hbd1DvPz5dhXeanzPjobDXqrryTXp8+hn6mek50/Vwf4b84tM1ft5TetW+UBctf00znpqlDElyu+TSGs05bc1RLp6vy/pRZTh43S6NHXqMjSDjFRRoXSrbOVbjw7F3ZEqGSVAGAMBaMR+U7JmjtOCFt3XXNwdYULxUVe+S1JvXotiVmT9fv/vz7Zpm0cTgglnzNPfOTdq6fJZm2CWlZCjjmw/ogxdmH7XXJqBP9zNw9pQM7TtQdfT62hSyCs2e4pXLK0U85Uy5Xc9NiXCdAIBBKeaH3gpGT9RHX5QMuJzcgrHaddBkrMxVpcqQA6N0yqSP9WXpgKs1Z8+QXXbZ/VE1Y5ROLdutfb1cCNa3+xm4jHETlfHuNpUd5RzX3zfr4DlndLyuZqwm/PMm7frC/PzK6oH/uwIAYKWYD0oZ/zxbk3+3Xh+5TU7oOvyVV6hpFVXdJz2fOlGXvr29xxVyX25Yo1dCjqRrxuxJ+s3R9j8a6Eq7nZv11neKND7QY1WkS2/6TC9sOMoLYYPr7NP9hEHhRbopZ61+87HJE2kr0YY1B7VgZlHHgXRNu3CinnlpU8/P0L1J6341sJffAgBgtZgPSrJP1V0PSsuuflTvlwf95LZ5VfbhGt169arQjRWHjtIpH27W1o5gFdgVO2O6fnD5q7pt2SZV+cNFW712rb9Xq1Nma0HXas+9XQ/HL9echzapLPiX3n1QH61eojkre7O9wXatWLhK75dUyxuo06uyD1fpmh9t0y1LOuYndSj43nLN/Ms8/XDtbrmCApC3ardeWT5ft74aNGm9j/czcEN16b2L5Xponn62vkv7yjdrxYIf66/zluv7Y4KaeNGP9fPae7o9Q1fJa1r2k20av3h62FspSV+unqWiha+pj3PtAQDoJnr7KJ12hpZt6V0R9im366VHi/TXZbM7dnc+QxMvWajHd4/VotU3a3LIyVO14L+k4vMnaeLU6bpmnX94x67Ji57X/SNe0w/P79jd+fzbtcE+X/fPHttTrZq8ZK2ePHOzll0WtAv1Lf+tXYUL9dzC3mxvUKRL56brvcdv1ne/1XHf35qtn21I0qJ1KzU3v8vp8aM0d8Uf9QP3Gt3Q0cbCidM1579ek+eCR/WLy4PnB/X1fo5mjeb05t8o/0I9/OJTmlnbpX3LNqlgyYv61eVd3mkXP0qXPrFRD5+2Sbdd2HH+1Fm64yXpsuWLdT4r+AEAMc7m8/l80W4ETkxl6+brvqRH9dzlkZmQDgBAX8X+0BsGqXp99nG5powjJAEAYhdBCdFR8qqe+Wy2ZpwW7YYAAGCOoATrbF+vZeu3qyx4xWKbV2UfPqU5V7+m8x+7PmjVHwAAsYc5SrBOW7W2vvw7vfDSer21pVpeSfa8Is2YNU83/WB26ItyAQCIQQQlAAAAEwy9AQAAmCAoAQAAmCAoAQAAmCAoAQAAmCAoAQAAmCAoAQAAmCAoAQAAmCAoAQAAmCAoAQAAmCAoAQAAmCAoAQAAmCAoAQAAmCAoAQAAmCAoAQAAmEiIdgOOprVdammT2tqj3RIAABBp8XFSYryUEMVunZgKSrVuydnkU71HamyWWtui3SIAABBtCfFSapKU7pCykm3KTolc3Tafz+eLXHXdNXilwy6fKhsIRgAA4NgS4qVhadLwDJvS7NbWFbWg1OCVymp9qm6IRu0AAGAwGJomFWRbF5iiEpS+OuLTwdqev3M1SXVNRpBqapG8rcxRAgDgRBQfJ9kTpOREKc0uZSZLGck9nzsqWzp5iC3sbYhoUGrwSl9U+tTgDT3uaZEqXFJVvZScJI0ZIo3OtmlYuvFQkhKk8N86AACIVT5Jza1G50llvXSg1qfSI1JTs5SbLuVlSI7E0GvS7NKpw8LbuxSxoFTdIO057FN7UG0tbdKBGuMBTMiXzh5thCMAAICeVNZLnx7waWe5NCxdGp1jrIzzi7NJ44bbNDQtPPVFJChV1hshKdhhl1RSbQSkC8bZZI+p9XcAACCWeVuld/cYgalwqDQ8I/T7ccPD0/lieVCqbpB2V4RWsa/KmH80a4JNBTlW1g4AAAazshrptZ0+JSdKY3NDvyvKG3jPkqVBqcEr7TgYOty2+2tj3tHcs23MOwIAAAPmk7TuU5/qmqSiEZ3H42zSWaMGNmfJ0r0uv6jsHpKGpUvfIyQBAIAwscnIFsPSjazh1+4zsshAWBaUvjoSurptX5XRk3T5RCISAAAIv8sn2pSZbGQOvwavkUn6y5Kg1OBVyD5Jh13GnKS5ZxOSAACAdeaebVNTi5E9/A7WqtvWRL1lSVAqq+1Mbi1txuq2WRMYbgMAANayycgcJdVGBvELziZ9Efag1OBVyGtJDtQYWwCwug0AAERCQY6RPQ7UdB6rbuhfr1LYg9JhV2di87QYeyhdMI6+JAAAEDkXjLOpst7IIn7BGaW3wh6UKoN6kypcRqILx2aShaedMfBCAADACcGeYGSQiqC5SsEZpbfCGpRq3VJr0HhgVb3xWhIAAIBIO3u0TVX1nZ9b24ys0hdhDUrOps4uLVeT8YJb3t0GAACiYVi6kUVcTZ3HgrNKb4Q1KNV7Ov9e1ySNGRLO0gEAAPpmzBAjk/gFZ5XeCGtQamzu/HuDVxqdHdlhN6ezTjcv+om2bNtxzHM3bHxT9y19RB5PPzdWOI5t2bbjqPfel+cIAEAsG51tC1ntFpxVeiNs73prbZc+KuksausB6epzwvPmXkk6ZdwEXfP97+uTLdtCjj/wn3dqyqSzBlS2x+PVQ4/9QpdeMnPAZcU6p7NOv/39S1pw/bVyOAbw8hsAAI4DlfXSi5/4NHl057FphTYl9LKrKAzr0QzBmzpJkrfVeGVJOKWmpKj4yUdUeNIYScaP/h333K8zJ4zXooU3hreyQarWWadrr5pDSAIAnBAyk41MEqylTb0OSmEbemtr7/45KWwxrGdZWZl6ZOl9+qq0VCX7S+V01uk/7vxPlewvldQ5hHTxFVfp5kU/0Tt/+UDFK5+VZAy9Fa98Vk5nnRb/9E59smWb7v35Q4EhqeBrr7rupkCZXZXsL9VV190UqMPprDvq8eKVz4YMaW3ZtiPQpmBOZ53uW/pI4Lqu1/ZUfsn+Ui1/4unAkJrH49XyJ54OtH3Dxjd1y21LNG/+zSFt2rDxTS1/4mndt/QR3bzoJyo9UGb6HC++4qoe2wsAQCxKSug5o/SWxVHGellZmTp5zBj9Y9dunXfutMBxj8erJ4tX6t9uvE5TJp0V0vvU9fqnHnsoZOit67Ul+0u1YtWzuveO/1BWVmbgWqezTitWPatl998T6OXq6fiWbTv0ZPFK3fnTW8Nyz2b11jidptd4PF41NTXpjy/+Wg6HXcUrn9Vvf/9SoCdu646/B8oLDmf+Z3Hxdy7SZZfMlGQEtg0b3wx8BgBgsApbj1J8XPfPza09nxtuBQX53Y7t2v25JGl80emSjED0bzde16vyul47Mi9Pw3NzuwURh8OhtNRU1daGHv/gw4908pgxgRAz9uSTJEkeTx+n2pswq/fo19h11ZwrAkNu06aeHfL9P037Zkjo8vM/i29fcH7g2MUz/0V79nxxQk6EBwAcX5pbe84ovRW2HqXE+NDP9gRjOV4k9lEqKyvv9sMvSblDh/Z7Ls4nW7bpyqtDg9UF50+XgsKEw2HXbYsW6o577ldZ+aGQieWvv/WOXn/rncC5GRnpR+3x6Yuj1Xs0W7bt0L0/fyjw+eJvX9ir+ro+x5ysLDW63fJ4PMx1AgDEtLqm7m8I6ZpZjiZsQSkhTkqI79yZOznRmGludVAq2V+qr0pLde1Vc7p9V1VdLY/HG/gxP3jo616Xe/G3L+zVBPGsrEytKn5CTmedHnjkcWVnZ0mSbl5wvaVDU2b1mtmybYde2fhmYOhty7Yd+mjzp72qq+tzrHE6lZqSIofDMeD7AADASpX1RibxS4jv/URuKcz7KKUmdf49zS4dqA3LzgOmSvaX6q77lmre3Nkhc4ckY7irouJwYOjI6azT62+83atyx558kv6xc1ef9hEKHg47c3yRNr7xdo8TwAsK8gMBxems0/88+2vT8iRp31f7JRlBJ7iHqqd6c7KydLiqSocqKiRJb737nrbu+LskIyQG9wz1NiT5n+Nb774XOPb6m3/WuHGn0psEAIh5B2p9Sgv6uQrOKr0R1snc6Y7O3S8zk6XSI+EsXWp0u7XotjsCnwvyR2rlU491C0mS0eNyx08X6677lsrlqldB/kjNufIy7dn7ZbdzHQ67Lr1kpu79+UM6Z8ok3fnTW0OulRQ4HhwO/BPEy8oPSTJ6kfxDYDffeF1IW/09VOedO0133HO/Lr7iql63yX+9f6jsaPVO/6dvBer9wTXf0+SzviHJmGP00GO/0MVXXBUorzf8KwvvuOd+rVr9fKA+JnIDAI4HpUek0dmdn9P7OBgStg0nJeNFczsPdRb3yX7p2qnh2XSy8LQzVLL3swGVsWHjm5LEjzwAACeAynrpt5t9OuekzmMTRtqUndL7MsI69JadYoz9+eWmS58esHb4rbdK9pdq4xtv68zxRdFuCgAAiIBPD/iUG9RZkxCvPoUkyYJ9lIalSYc6tuHJy5C2lUkXjOs+49xqXYenJON1Jz0tgQcAAIOLt1XaWS5NKug8Niyt7+WEdehNMl6Gu62ss8h9VdKwDOni8ZF9QS4AADhxvb7Lp0qXNDa389ikAlvIxO7eCOvQm2SsdhsalNhG5xiJrqwm3DUBAAB0V1ZjZI/ROZ3HhqapzyFJsiAoSVJBdmfvUWK8VDhUem2nT7ExWwkAAAxWPhmZo3Bo6MaSwdmkLywJSml2aVTQUrzhGcZmT+s+JSoBAADrrPvUp+REI3v4jcruX2+SZFFQkqSTh4SOA47NNfZYenk7YQkAAITfy9t9qmsKnZeUZjcySX9ZFpQk6dRhNsUFta1ohLGnwR8+ZRgOAACEh09GtqisN7KGX5zNyCIDEfZVb11VN0i7K0Kr2FclNbVIsybYVJBjciEAAMAxlNUYc5KSE0N7kiSpKM8WssCsPywPSpLRi7TncGg1h11SSbU0IV+6YJwt4vssAQCA45e3VXp3j087y41FY8FzkiRp3PDwvBkkIkFJMnqW9hz2qT2otpY26UCNEaQm5Etnjw7PTQEAgMGpst7YcXtnuTQs3dgCIHh1W5zNCEkD7Unyi1hQkozNKL+o9KnBG3rc0yJVuKSqeik5SRozRBqdbYSmzGQpKUFiu0oAAE4cPknNrcZCsMp66UCtT6VHpKZm4xVpeRmSIzH0mjS7MSepvyvcehLRoOT31RGfDtb2/J2ryXgoDV5jHpO3VWprj2z7AABA9MXHGa9AS040QlBmspSR3PO5o7IHtrrNTFSCkmQEobJan6obolE7AAAYDIamGZtJhrMXKVjUgpJfg1c67PKpskFqbYtmSwAAwPEgId54we3wDOsCkl/Ug1KwWrfkbPKp3iM1NhOcAACAEYxSk6R0h5SVbFN2SuTqjqmg1FVru7EyjjlKAACceOLjjBVtCZZuj310MR2UAAAAoimKGQ0AACC2EZQAAABMEJQAAABMEJQAAABMEJQAAABMEJQAAABMEJQAAABMEJQAAABMJES7AV21tLTK1ehWo9sjj9crb3OL2traxb6YAACcOGw2m+Lj42RPSpTDbldqikMZqSlKTIxsdImZnbmPOF2qqXXJ421WelqK0lKSlexIUlJiohIS4mWz2aLdRAAAECE+n0+trW1qbmlRk6dZDe4m1Te45bAnKSc7Q0OyMiLSjqgHperaOh2urlWyPUlDsjOUmZ4WzeYAAIAYVlffoCO1LjV5mzV8aLaGZmdaWl/UgpLb41X511WKi7MpLzdHqSnJ0WgGAAA4DjW6m1RRVaP2dp/yR+QqxWG3pJ6oBKUjTpcOlB9WwYhhGppjbRIEAACDV3VNncq+rtTo/OGWDMdFPChVVNWotq5eY/KHKyXZEcmqAQDAIORu8qi0/LCyM9OVl5sT1rIjGpQqqmpUV9+gwoKREZ+1DgAABq+WllaVlB1SZnpaWMNSxPZROuJ0qbaunpAEAADCLjExQYUFI1VbV68jTlfYyo1IUHJ7vDpQflhj8ocTkgAAgCUSExM0Jn+4DpQfltvjDUuZEQlK5V9XqWDEMOYkAQAAS6UkO1QwYpjKv64KS3mWB6Xq2jrFxdlY3QYAACJiaE6m4uJsqq6tG3BZlgelw9W1YZ+BDgAAcDR5uTk6XF074HIsDUpHnC4l25PYTBIAAERUakqyku1JA57YbWlQqql1aUh2ZN7FAgAAEGxIdoZqamM0KLW0tMrjbebdbQAAICoy09Pk8TarpaW132VYFpRcjW6lp6VYVTwAAMAxpaelyNXo7vf1lgWlRrdHacxN6sbprNN9Sx+R0znwmfgAAODo0lKS1ej29Pt6y3Z/9Hi9GpKVHr7yPF499Ngv9MmWbYFjF3/7Qi1aeGPY6gAAAINLsiNJNXX9n6dkWY+St7lFSYmJYS0zNSVFxU8+otf/9Hv98cVfq6q6Whs2vhnWOgAAwOCRlJgob3NLv6+3rEepra1dCQnxVhUvh8OuSy+ZqY82fypJKl75rF5/6x1J0jlTJunOn94qh8Oukv2luuu+pXK56lWQP1KPLL1PWVmZIeffvOB6lZWVa9rUszVl0lmB3qvJk87SZZfMlMfj1X//8n8058pLVXjSmJBrg8ss2V+qFaue1fii0/XSn17RA/95p6ZMOivk/Nv+/YeWPRMAABAqISFebW3t/b8+jG0J4fP5ZLPZrCo+hNNZp9yhQ/T6n34fCDlvvfuezjt3mlaselbL7r9HhSeNCZzv74V6/U+/Dxzbsm2HPtr8aUdQMsYyjxypkSQdqqiQJI3My9OGjW+qqrpaf3zx13I47NqybYeeLF6pO396qySp/NDXmv5P3wqU3bWu4pXPqqLisJWPAwAAdLDZbPL5fP2+3rKht4E27Ficzjr9z7O/1rSpZysrK1Pfm3O5JKOnafKkszr+7lBaaqpqa50h144aOUJV1dXyBL0wLzs7S1+VlsrprNO+r/ZrzOgClR4ok9NZp9pap8aNO1Uej0eb/u+vuu7aq+Rw2CVJ44tOV2pKSiBM5Y8cofPOnRZo46b/+6sunvkvgXquvWqO8vKGW/ZcAABAp4F23FjWoxQfH6fW1jYlJoavika3W4tuuyPw2T+0JRk9N6tWPx/47uYF18vhsOu2RQt1xz33q6z8UOD8KZPO0sFDX+vKq68LDNONzMvT8Nxc1Tid2vGPXZox/Vy9v+lD1Tid+mjzp5o29WxJUlpqqnKysgL1OBx2paSkqLbWqezszuN+Xc8HAACR09rapvj4/vcLWRaU7EmJam5pCWtQ8k/mDh5Gk4yQVFZW3m24S5KysjK1qvgJOZ11euCRx5WdnaXCk8bosktm6rJLZmrDxje1+vnfatHCGzVu3Kn626dblZKSrJF5eRoyJEd/+3SrJGnsySdJkhoaG1XjdCory3jJr8fjldvt7jEk9XR+jdOphsbGsD0TAABgrrmlRfak/i8us2zozWG3q8nTbFXxIcrKylVQkC/JCC5bt+3o3p5eDMONGjlCf3n//8ntbpLDYdeZ44v0t0+M4JSVlamsrEydPGaMfv3b3weG7Xbt/lyNbrdG5uV1q9N//utv/jlw7PU3/6yG+oZw3j4AADDR5GmWw27v9/WW9SilpjhU3+DW0JxMq6oIuPaqObrjnvu1avXzyshI1+SzviHJmCPkH3aTjOG4KZPOChmm869aczjsGnvySbJJOuvM8ZKMydvp6WkaMiQnUNeihTeqeOWzuvLq6ySFrrDryYLrr9VDj/1CF19xlSRj1VtVdbUlzwEAAIRqcDcN6E0hNp9FM65bWlr1+b4DOvP0QiuKBwAAOKZ/fF6i08eO7vdUIMuG3hITE+SwJ6mOYSYAABAFdfUNctiTBjRf2rKgJEk52Rk6Utv/bcMBAAD660itSznZGQMqw9KgNCQrQ03eZjW6m6ysBgAAIESju0lN3mYNyYrhoCRJw4dmq6KqxupqAAAAAiqqajR8aPaAy7E8KA3NzlR7u0/VNXVWVwUAAKDqmjq1t/s0NHvgK+8tD0qSlD8iV2VfV8rd5IlEdQAA4ATlbvKo7OtK5Y/IDUt5EQlKKQ67RucPV2n5YbW0tEaiSgAAcIJpaWlVaflhjc4frhST/Q37KiJBSTImdmdnpquk7BBhCQAAhFVLS6tKyg4pOzN9wBO4g1m24aSZiqoa1dbVa0z+cKUkOyJZNQAAGITcTR6Vlh9Wdma68nJzjn1BH0Q8KEnSEadLB8oPq2DEsIi84gQAAAxO1TV1Kvu6UqPzh4e1J8kvKkFJktwer8q/rlJcnE15uTlKTUmORjMAAMBxqNHdpIqqGrW3+5Q/Ijdsc5K6ilpQ8quurdPh6lol25M0JDtDmelp0WwOAACIYXX1DTpS61KTt1nDh2aHZQuAo4l6UPI74nSpptYlj7dZ6WkpSktJVrIjSUmJiUpIiJfNZot2EwEAQIT4fD61trapuaVFTZ5mNbibVN/glsOepJzsDEuG2XoSM0HJr6WlVa5GtxrdHnm8XnmbW9TW1q4YayYAALCQzWZTfHyc7EmJctjtSk1xKCM1ZUAvuO1XO2ItKAEAAMSKiO2jBAAAcLwhKAEAAJggKAEAAJggKAEAAJggKAEAAJggKAEAAJggKAEAAJggKAEAAJggKAEAAJggKAEAAJggKAEAAJiI7JvljqGmUXr3c/nxFOMAAAX7SURBVJ/e2yNtPeBTuVNq8Ept7dFuWaf4OCnNLuVnSZNH23T+OOmC023KSY12ywAAQLjFxEtx39jp04r3pQ/3+ZSaJLk80W5R72U4pMZm6dyxNt0yQ/rOBFu0mwQAAMIkqkHp3c99uvtlo+eorilarQifzGSjp+nBy2264HQCEwAAx7uoBaUfrfXp5e0+NXijUbu10uzS5RNt+uU8whIAAMeziAelLyuluc+065BTcjdHsubISkmSRmZJ626K0ynDot0aAADQHxENStvKpEtXtA+KYbbeykyWXrklTpMKot0SAADQVxELSl9WSuc/cWKFJL/MZOm9n9CzBADA8SZi+yjNfebEDEmSMVF97jMxtMcBAADolYgEpR+t9emQMxI1xa5DTuM5AACA44flQendz43VbYN54nZvuJull7f79O7nhCUAAI4Xlgelu18enFsA9EeD13geAADg+GBpUHpjp7GZJDqVO43nAgAAYp+lQWnF+4Njx+1wqmsyngsAAIh9lgWlmkbj3W3o7sN9PtU0RrsVAADgWCwLSu9+brzgFt2lJolJ3QAAHAcSrCr4vT2Sy9OPC+fFyTU16HOTT3f/zKenZdOrD9t0nsunjGXBIcOmTx6WXviZT1oUpwdP7V5k3Rc+FRTLuD658/ieze06Z23P9b+wuF2LetWuvnN5jOfzr1P6cTEAAIgYy3qUth4YQI/JYZ8yFrcbf7qEkboMmz6Z1/NlTxd3XLPYpz0ywk7G4nYVFHe25YM/dZzzJ5/ypsapuEsZxSdJew5Lly3q4YW2Qe16wWXTkp7O6aUBPR8AABARlgUlq1a7bf+7T3nfsOnfB1rQ+9L2JmnMjOCDNk3N8OmFv/qkUTpqHYv2S5kZ/a+e1YAAAMQ+y4KSZXsnHfJpwwB7cyRJM6SJ8unt4BVo82zKOyg9/b60XTZdNMP0aqPnaX//e4XYWwoAgNhnWVBqG8irzYbb5HoqzvhzV/dAtGiZTxWn2vTqUYKMmfOu6Ch3prQ8ZFjPple/IW3f6ZPk09sHpYkTutQd1K6p+3uY39QHA3o+AAAgIiwLSvEDKTl4jtKynnptfDpns3Tet/req2TMUfJpT3KXHqMuPUxP7+xh+K2jXXd/IY07aWA9WgN6PgAAICIs+7lOs1tVcoe1Pn1wlIndR9c9aP37BJsyk2160N+TdYXxuafht6eLjbr706PlZ/nzAQAAA2ZZUMrPsqpkP5+++6YxsTuvP5eHBC2bLhoVtCKu48/dX5j1Wvn03b9L583s/6Ry658PAAAYKMuC0uTRAxiaCp6j9FT3JfwB7/u0wSVl9qsSI+yMmxqn4p4mdssYfqsbbuu5/rU+faD+Tyof0PMBAAARYfP5fJZs6PO/W3y6bZ2vf5tODnIZDunJuTb96xTCEgAAscyyHqULTrepsdmq0o9vjc3G8wEAALHNsqCUkyqdO5Yw0JNzx9qUkxrtVgAAgGOxdJH6LTOkzORjn3ciyUw2ngsAAIh9lgal70ywsbqri/ws47kAAIDYZ/m2hw9ebmPPoA5pduN5AACA44PlQemC0226fKJNKUlW1xTbUpKkyyfamMQNAMBxxLLtAbqa/GC7vqyMRE2x6ZRh0ta7eW8JAADHk4j9cq+7Ke6EndidmWzcPwAAOL5E7Nf7lGHSK7eceGEpM9m471OGRbslAACgryI29Ob3ZaU095l2HXJK7kG8IWVKkjQyy+hJIiQBAHB8inhQ8vvRWp9e3u5TgzcatVsrzW5M3P7lPCZuAwBwPItaUJKkdz/36e6XfSp3SnVN0WpF+GQmG/skPXg5q9sAABgMohqU/N7Y6dOK96UP9/mUmqTj6kW6GQ7j3W3njrXplhlsJgkAwGASE0HJr6bR6GV6b4+09YDR09Tgldrao92yTvFxxtBafpY0ebRN548z9ori3W0AAAw+MRWUAAAAYgmb+wAAAJggKAEAAJggKAEAAJggKAEAAJggKAEAAJggKAEAAJggKAEAAJggKAEAAJggKAEAAJggKAEAAJggKAEAAJggKAEAAJj4/2PTYihVKO3xAAAAAElFTkSuQmCC;" parent="1" vertex="1">
          <mxGeometry x="160" y="170.10000000000002" width="75" height="29.95" as="geometry" />
        </mxCell>
        <mxCell id="8XKfCKsSzNNgbXioAJdh-3" value="Login" style="text;html=1;strokeColor=none;fillColor=none;align=center;verticalAlign=middle;whiteSpace=wrap;rounded=0;fontSize=8;" parent="1" vertex="1">
          <mxGeometry x="170" y="140.0999999999999" width="49.85" height="32.81" as="geometry" />
        </mxCell>
        <mxCell id="8XKfCKsSzNNgbXioAJdh-4" value="Home com solicitaÃ§Ãµes aprovadas pela triagem&amp;nbsp;" style="text;html=1;strokeColor=none;fillColor=none;align=center;verticalAlign=middle;whiteSpace=wrap;rounded=0;fontSize=8;" parent="1" vertex="1">
          <mxGeometry x="290" y="137.54" width="120" height="30" as="geometry" />
        </mxCell>
        <mxCell id="8XKfCKsSzNNgbXioAJdh-5" value="" style="edgeStyle=orthogonalEdgeStyle;html=1;verticalAlign=bottom;endArrow=open;endSize=8;strokeColor=#ff0000;rounded=0;" parent="1" edge="1">
          <mxGeometry relative="1" as="geometry">
            <mxPoint x="160" y="184.67000000000007" as="targetPoint" />
            <mxPoint x="100" y="184.67000000000007" as="sourcePoint" />
          </mxGeometry>
        </mxCell>
        <mxCell id="8XKfCKsSzNNgbXioAJdh-6" value="&lt;font style=&quot;font-size: 22px;&quot;&gt;MarcaÃ§Ã£o&lt;/font&gt;" style="text;html=1;align=center;verticalAlign=middle;resizable=0;points=[];autosize=1;strokeColor=none;fillColor=none;" parent="1" vertex="1">
          <mxGeometry x="290" y="40" width="120" height="40" as="geometry" />
        </mxCell>
        <mxCell id="8XKfCKsSzNNgbXioAJdh-8" value="" style="edgeStyle=orthogonalEdgeStyle;rounded=0;orthogonalLoop=1;jettySize=auto;html=1;fontSize=8;" parent="1" edge="1">
          <mxGeometry relative="1" as="geometry">
            <mxPoint x="358.95238095238096" y="202.61" as="sourcePoint" />
            <mxPoint x="360" y="266.54999999999995" as="targetPoint" />
          </mxGeometry>
        </mxCell>
        <mxCell id="8XKfCKsSzNNgbXioAJdh-13" value="" style="edgeStyle=orthogonalEdgeStyle;rounded=0;orthogonalLoop=1;jettySize=auto;html=1;fontSize=8;" parent="1" target="8XKfCKsSzNNgbXioAJdh-15" edge="1">
          <mxGeometry relative="1" as="geometry">
            <mxPoint x="310" y="335.24" as="sourcePoint" />
          </mxGeometry>
        </mxCell>
        <mxCell id="8XKfCKsSzNNgbXioAJdh-15" value="" style="ellipse;html=1;shape=endState;fillColor=#000000;strokeColor=#ff0000;fontSize=8;" parent="1" vertex="1">
          <mxGeometry x="227.34999999999997" y="320" width="30" height="30" as="geometry" />
        </mxCell>
        <mxCell id="8XKfCKsSzNNgbXioAJdh-16" value="" style="ellipse;html=1;shape=endState;fillColor=#000000;strokeColor=#ff0000;fontSize=8;" parent="1" vertex="1">
          <mxGeometry x="507" y="260" width="30" height="30" as="geometry" />
        </mxCell>
        <mxCell id="8XKfCKsSzNNgbXioAJdh-17" value="Detalhes" style="text;html=1;align=center;verticalAlign=middle;resizable=0;points=[];autosize=1;strokeColor=none;fillColor=none;fontSize=8;" parent="1" vertex="1">
          <mxGeometry x="297.35" y="250" width="60" height="20" as="geometry" />
        </mxCell>
        <mxCell id="8XKfCKsSzNNgbXioAJdh-18" value="" style="ellipse;html=1;shape=startState;fillColor=#000000;strokeColor=#ff0000;" parent="1" vertex="1">
          <mxGeometry x="80" y="167.54" width="30" height="30" as="geometry" />
        </mxCell>
        <mxCell id="8XKfCKsSzNNgbXioAJdh-21" value="" style="edgeStyle=orthogonalEdgeStyle;rounded=0;orthogonalLoop=1;jettySize=auto;html=1;" parent="1" edge="1">
          <mxGeometry relative="1" as="geometry">
            <mxPoint x="423.25" y="187.71999999999997" as="sourcePoint" />
            <mxPoint x="480" y="187.76000000000005" as="targetPoint" />
          </mxGeometry>
        </mxCell>
        <mxCell id="8XKfCKsSzNNgbXioAJdh-22" value="&lt;font style=&quot;font-size: 8px;&quot;&gt;Agendar&lt;/font&gt;" style="text;html=1;align=center;verticalAlign=middle;resizable=0;points=[];autosize=1;strokeColor=none;fillColor=none;" parent="1" vertex="1">
          <mxGeometry x="495" y="125" width="50" height="30" as="geometry" />
        </mxCell>
        <mxCell id="6sN9hePH6n2u5998fX2B-1" value="" style="shape=image;verticalLabelPosition=bottom;labelBackgroundColor=default;verticalAlign=top;aspect=fixed;imageAspect=0;image=data:image/png,iVBORw0KGgoAAAANSUhEUgAAA48AAADkCAYAAAA4shELAAAgAElEQVR4nO3df3xU1b3v/3esNpVWqgZsLKAQ0vRIvTRANCo+xgilIFVibyj3kCM8DMZDeNRLctsLAodgIBxAuJ5vwvFcQx3Bh3igF8m3BhWhKTHOQ9RoQnLTim2aH1RAUkK0gKKxytw/9p6ZPTN7Mvkxk1+8no9HHkn27L322mvv2bM+a629JsbtdrsFAAAAAEAnLuvvDAAAAAAABr7LW46f6u88AAAAAAAGuJgLFy4wbBUAAAAA0KnLY2Ji+jsPAAAAAIABjuARAAAAABDW5Zddxpw5AAAAAIDO0fMIAAAAAAiL4BEAAAAAEBbBIwAAAAAgLIJHAAAAAEBYzJYDAAAAAAiL4BEAAAAAEBbDVgEAAAAAYdHzCAAAAAAIi+ARAAAAABAWwSMAAAAAICyCRwAAAABAWASPAAAAAICwCB4BAAAAAGERPAIAAAAAwopY8Hhk8wQlJFl+7t6m977q6tYntHOe//aLSs9EKmtDw1dnVLk5U8lJE5SQeq+WbH5Z77V1SJLaXsxVQlKO9rX1cx4BAAAADFmXRy3lkyXa8/aDWjs1Nvy6f3hFzrqo5WRIOPdqoRZ5CunjZh10LtdBp2WF5NWaNLJfsgYAAADgEhDFYasd2llepY4urPne66U6Hr2MDAmNR8ulm5fppfePqvn3Lr30b1maedMIxUoanpypp/6/TI3p70wCAAAAGLKi0POYqttvq9Jbb0vaVaqDuQ7NuaaT1TuqtOfpE5KkNIdDlS5X5LM0BExeflTNnn++NkI/uHeZnrp3WX9mCQAAAMAlJAo9j7G6Y+q95t/leu7VE52ufa58l3ZekKSblJg0PPLZAQAAAAD0WlSGrY6ckaEFw4y/jzz9it4LueYJlT1XbvyZnKG7x5/rPOGvOnS8plRPLM/SfbNSvZPr3OTI0JLNpTrSGrxJW2lOwCQ8HWosXa+5qROUkJSq/wh81tLcx4afZ+jHqZ4JfCYpNT1LecUutdms2538+Pm4WZXO5fqndIdu8kwWlHqv7vv5eu17vyN43V3rteS/Zig12ZOvVP04a7mcFc0619nkRCH3s0V7apiYCAAAAEB4URi22iHFpio9M1Y7nR3SyVJV/mGxfnCzzaqWiXJmLrxPiR2dDVk9o32/mKG8V4OfouxofV8Hnfk6uKtcm14p0bxRodL4XMdLV+u+lS7zWczzOmsNus7V6T8WZ+mJmsB9dKjt/Srte3+CFuY6NDIC+Tn+cr4e+kWpGgNf+LhZ75U368VpOZpzkznZUN02Jc8rVnBofV6Nh1/WhsMva0/2Lr20PFmB0xOF28+K8h1yZhTrmfUzNOZrwfkEAAAAACkqwWOVGlulebNzNMZZrOM6oSd/U6Xsm1ODAhvvRDnDMrVwxlXSy52n/PmnHdI1yZqTmaH7UyZo/ISrdK62SmVPr5ezpkO64NKK/7FLt+8JMXlM6yvaUOyyn8TnQp02zMuU0/Ng4bARSrs/S7McEzQmtk2N1e+r5m3/YbU9zc/x0hz9eKUvH8OT79W8+x26+8aR6mg9qprf1+m4tbC+OqdzitXIaRl65N4Z+sGE8RqjE3qrYoee3FyuRkmNzixtmPq23+y2/vvxbZ847ITec72sJ3dV6ZykxtJcPXSNffAJAAAAAFI0v6rj5p8oO7lYj9VJHTtLVZmbqpnW2MsyUc6YhzN0e6wU7msKr/txiaq2OTTS2kM2bbR+cNtIddyRYzw7WefSW62ZGhMfvP1bT5eo45oZWvvMei24+SprZnTkyeW+wDEhU9t3rlaa5asvbp96rxbkRiA/raV6zBLQpeWX6qkFCZagLVVpGQEZ/9pNWlvm0oKbrHkeoTkJxZoQm6kfF9ZJ6tCew+9r7dRk4+WPy/VEoWc/CVrgfFZrHSO8+7h9Woays0q1KD1flRekRudyOWf/Vj+36yEGAAAAcMmL4ld1jFb6whnm3y/rRdd5v1d9E+WM1ry7bupCeiOUNi8gUPMYlqq77/f841LjSfsUOi6M0i+fLQ4IHCWdc+k5p2diH4c2PeMfOEYyP++VbVOl+feYrJKAwDGE5HsDAkefxKn36gfm3x0NTd4AvK2iVPsuGH/HZi7XKm/gaHFjhlblesr+hPYcfj9cTgAAAABcoqLX8yhp+IxMLRhWrp0XpIPPvaTj93qGb1onynlQc7rT2/VVh9r+8r4ajx7Vm00ndbzubTU1Neu9cJPTSJIjS/Ps4tSjddrn+TszU+khn5nsbX5O6L3DniD1JmX/t+ChvJ26cELv1TbrvfdrdfxEsyrrm3T8D802z0J26L3f+54fXTDLEXI/ibf9WGP0vo5LOv7uUbUtvklh42YAAAAAl5yoBo+KTdasjFjt3Nkh1T2rfX/INIZFBkyU09Uvtz/+8nr9j8JdOvJxD/OTNN42MGo72eT9+/YJXegJ7HF+zqjxbc/ftynxxi5udq5OzuVL9UTFGfvnNYOc12nvN6Q4lDi2k1WvGaHxkvHsafUJHZcIHgEAAAAEiW7wqFjd/tMcjdlpTJyz5/X39fObbwqeKKcL2l7M0Y+Xm8/wDRuhtPtzdP+M8Ro/eoLGjLxKjU9O0Fxn52mkjR8dPsdf+0af5Se2K7ObdtTpiXmZ+g/zeczhyfdqwX+7V3eMHa3EhJEafuG3WnJ3vncobK9c8w0mzAEAAABgK8rBo/wmzjn+dKneypyhA+ZEObEZMzS5S9HK+9rjnSXVYfv1Fx2dfc9hOJYgrrKhSZLN84ERyk/sMEkXJOmoGk9Kk8MMkT1XscsbOI7J2qHfrgwY6npBNr2Rsfq2d3IilxqPSbKZQEiS9PEZeftdvz9K13WeHQAAAACXqChOmONhmTjnQqn+z+ZS7TEnynnkp1185q/1qGo8k87c7LAJuJrV+G7PczhyosM76Yz+T7kqL0QrPzdpincinSrtqWi2W8lP4+9931+SNjX4qzQ6mt7XW0FbXaXxk3wPdx501YUc7tpY/brRCyzpB1MnMGQVAAAAgK0+CB49E+dIUof2lb5sBDLdnSjH4w/v60RAcHe8dLM2/KEXGUxwaJ75DRe6sEtLflGq4zY9h8dLX9aRXuUnVrfPyPQGgEcKl2rD2+eDVztXpX0VZ4IWH2kKmEb2Qp2e2LDLbkdKnJGpNE9+nKv1hN1+/lKqDU+YD5/KoQUzEmzTAgAAAIA+CR49E+dYdWeiHMVP0BRv716pljy0RXsqqvTWYZf2bM7SfStPaEyv4p7RWrBptSab/3VU5OuuOzKVV1yqysNVeuvlHcqbl6q7Vr7f6/zETl2mpzI9ZdEs50KHUnPWa+fLnu1zlOrI0ovmJDyJ/+Ve77bvbVyqJc6X9ZYnT/OztFMJ9uUYn6G1Gz2zrBr7ue8XxWY+X9bOgiwlz8g3e1ljlbZxteaFGtoKAAAA4JIX/WceJflPnCNJM3TP1K5NlGO4Sdn/K0tl83eoUVJHzQ6tqNnhTTtt40t6uOnH+qfwo0BDS8jUf/7/5/VPDxTryAVJH9dp339YvsIjYvmJVVr+S3qqI0dLSpsldaitYpceq7DvQRz+46XaNK1cKyo6JDXr4OblOujNc5b2bk3Qk/fme4eeWo3JKNbej3P0T5urdE4deu/lbVrx8raAta7SzILdKsoIP5kQAAAAgEtX3/Q8SubEOcafsQsyNfOa7m0eO2WZ9pYVasHUBBlzwcRq5JR7tWpHubZnjI7ILKGxNy/WXtfL2l6QqZk3jfCmGRt/k2ZmrtZ/vrbU2zvZq/x8bbRmbnxZVbsL9fP7U5XoLYurlDj1Xv3830pVdP8I77rz/qNc/5k7Qz+IN1O9JkEzszfrpT3LNHm43Q68R6QfZO9Q1Ws7tDZzhn6Q4AvYhyfcpJnZhdrrqtJTmV3/ehIAAAAAl6YYt9vt7u9MXOqObJ6guU6HNrlKGDoKAAAAYEDqu55HhOHSCkeq5haUqjHcbK8AAAAA0MfoeRwILpzXuXMntGd1hja4pMkFv9XeTJ5BBAAAADBw0PM4EAy7SsPjb1LaXcZ3M77XFvw1HQAAAADQn/potlWE1HFCR6pP6lyrS08+8b6kWM1Luam/cwUAAAAAfhi22t9aS7XIka9KxWrkTQ4tXJ6vn08d0d+5AgAAAAA/BI8AAAAAgLB45hEAAAAAEBbBIwAAAAAgLIJHAAAAAEBYBI8AAAAAgLAIHgEAAAAAYRE8AgAAAADCIngEAAAAAIRF8AgAAAAACIvgEQAAAAAQFsEjAAAAACAsgkcAAAAAQFgEjwAAAACAsAgeAQAAAABhETwCAAAAAMIieAQAAAAAhEXwCAAAAAAIi+ARAAAAABAWwSMAAAAAICyCRwAAAABAWASPAAAAAICwLu9tAseOHVN9fb06OjoikZ+oiY2N1cSJEzV27Nj+zgoAAADQLYOlzo3oGQjxTK+Dx/r6et1555269tprI5GfqPnoo4/0xhtvEDwCAABg0BksdW5Ez0CIZ3o9bLWjo2NQXMTXXnstLTUAAAAYlAZLnRvRMxDiGZ55BAAAAACERfAIAAAAAAiL4BEAAAAAEBbBIwAAAAAgrKgHj627MxRT+JZ1iXbNi1FMTIxiYv5Vb4XcEgNbu8qW5qrsdH/nAwAAAEBfiGLw+Jb+NSZGP2+crP9qWdq6++dq+YVbbrdbp3Yd0R2FPQsfCwoK9Le//S1o+d/+9jetXbu2h3nurXoVba33/b20TO3d2Lp9X66K6qKRr8hr37dTWl2s9OvCrFhXpJRulgMAAEA01W9NUUqK5yfKjeGny5SbUqT68GsCA14Ug8fb9S9ut0qzxlmWtaqiMUMP3Wb8Fz//f2r9mopu9z4WFBRo7dq1uvvuu/0CyL/97W+6++67VVBQoIKCgl4fATpx24LwgaMkJeepemu64qKeIQAAgK6aqvz91aqurlb1/mmqmB3F4O66dBVX52litNIH+lAfP/PYopbfW/8fp3E/634qeXl5+uEPf6i6ujpvAOkJHOvq6vTDH/5QeXl5XUipXWVLi1S2L9fX6lRX5G2Jyt1n9pcFLjtdpqJ9vr604B7DehWlLNLzbxZqppmutYUr17Ktb3mudh6zJGHZZ4qltap9X653eVAvZV2RcvfVq2xp8Hb26dkcf9i06lWUkqKZs2cGbGMsT0lJUcrSIhUtNdf3lpV1X/6tfKHKBgAAIOquu1PT7jD+tKtn2S2z1t+Ktpr1wJD1w4CRad76kjEyy7YeVFek3H1lxrpb6bPEwHF5f2egJ66++mpVVlYqLS3NG0BK8gaOlZWVuvrqq7uY2vOq0EFVV8cZwwpc01RdbQSe9VtzVXb6IbVkS9urq30tRmGHNkxUXvV2aWmLFnh63ZZWq3qpZARRO1U/J08T64q0qDFfB6vTFad2lS2dqRaHjHxY9tm+L1czt9ar+h9btO5303SwujhkT97hdc9o2v5qVV/nv51tektH+R9/V9JaOlF51dXKk5nPX9crfelE1W9dpJY1B1U9xyzH2S2dl3VdkVLMbSfalU24IgYAAIiEup0q1DgdrCvSOq0x60RGo3f96nF6JrDuFar+1gX1WxdJzmpVJ/uWxYWoBx1e16KHPHUuYIDo457HcRr3X6z/t6jlhZ6l5AkgPT2QPQscJekBPTTHuB20v12hw88t8rb+LHrusFo+nKhpC5/Xot4+t3e6TLkpKUpJmanCN1vUclqqdz2vBxZ5hnTG6c4fTfXmQ2sWeAOouDkP6YHGFrVfd6emqVAzO2mBmrpmjXc4adxt0zS1sUWNodILOP6upNUuSwvc7EIdbmxRu+pV8ZwlHUsLnj/LOsnT9EAnZQMAABA9h1U42+zxy5a2b03XSdfzOrxuplkPNOskCq57haq/dcVExwN6PjtgtFeIetBUS90NGCj6uOcxXuP0T3rm7Uz9y21S6+7/pdXr/qfcPUzN2gMpqQeBY7Cpaw6qODCYSq5WtfnG1pqDKr6tu6nWq2i20XpULKNH065fLrw4pW+tVnpdkVJSFukBZ7XyksNvFVF1RZp57CFVVxfLmBSoZ0fiE6myAQAA6Kqpyt/vP/FfvWRftwqoe03rzW6T81Rd3W48FqR8Hdw6TjupB2EQ6fPvebw9/03pduOrOq7/TYZO5d/eq/Q8AWQkAse4G8bp8Lqd9g9MX5eu4v350rGTkqSW371h9tzVa+e6w50nfLpFLXeM0yhz/YrnjMWjxk7V8y7v04x643dGOnG3TZMs+Wjf94yeTxznGy6RnKdq5wNq+SC4L/SwN19S/a8LpR/dqcRw6YVgl5Y+aNHUscaRqK5CzxtHonF3PK8KzzOYp99QxZthEvcIUTYAAAB9adTYqXp+e4iRZpa6V6j6m9TV+mGc0rceVL5adJJ6EAaZ6Pc8js5Uab51gTEL679EcBe9DRq9kvN0cE2uZqakmAse0PbqaapIWWQGSUYrla6bqIcSUzQzpVDSA8pfM9WmlWiipiUu0syUCuXvL/Zb/4GFxhpxc9Yof+lMGbubqgcWmsMerkvXGms+7sjXwa0TzWcJC3XYm7fg8G9qYovWpaQY6yzcbjyDqBDphRmIa5/WQxqXMlMp6yQtfMAcehqn9NX5yp2dohRJuuMBPWA7bNXGdem2ZQMAANCX4uYUa/sxT51ERn1ptbQuoO4Vp9D1t3D1w/qtKVpkBohT1xxU8XVx1IMwqMS43e6ejhqVJL3wwgv62c96MGVqPxhMee2RuiLlfrAgeNhtX6d1uky566U1fEUHAAAY4tr35WrnDcVRf5RoyNdj0SX9fR0MytlWMfBYW9KMlrk8AkcAAABgCCF4HEqS81QcqVavbqbl+7oNAACAS0fcnGK+TgOXjD6fMAcAAAAAMPj0OniMjY3VRx99FIm8RNVHH32k2NjY/s4GAAAAAAxKvR62OnHiRL3xxhvq6OiIRH6iJjY2VhMn8lWrAAAAANATvQ4ex44dq7Fjx0YiLwAAAABseEb7XXvttf2dFfSTgTCSkglzAAAAgAFusIz2Q/QMhJGUvf6eRwAAAABA9CUkTVBzw9F+2z+zrQIAAAAAwiJ4BAAAAACERfAIAAAAAAiL4BEAAAAAEBbBIwAAAAAgLIJHAAAAAEBYBI8AAAAAgLAIHgEAAAAAYRE8AgAAAADCGhzBY80WJSRN0KLSM/2dk0vGxYtS9ZHzcrv7OyfoKbfbrc8//7y/s3HJOHfuXH9nodsGY5677oz2ZE9QQnap2lpLtWhzXVT3dmTzBCUk5WhPa1R30y2ffPKJ3EP2Jl6nDUkTlLC5TqrZQv0gws6fP9/fWRgShvY9FtF28eJFffHFF/2djSB9Hzy2lmpR0gQleG76XuYHfdDyOm2Yv0PZu49qe8aIoOSMD+wtOuLdfouORDKPQfkJ1laao4SkCdpQ4/93uHW9x9ybSk3NlqhUWP7cdEH7XjmjppbPIpSi5fx6frJL1dajNHp6jiNQ3oPI2bNn1d7erosXL0YoxeBzuKHG8x60/pjnJ/B91Mn7YrC7cOGCzpw5owsXLkQ03cCyXVR6xnLPk20Zd/V9FfE8m3npbiU+KvdwSWp9XQeSdql5SbNSHflKnJ7c9W3NBsvgRkszYAlcXrNFc51Z2ttQonnxgYlZgljP9t2+93Xf559/rjNnzuiTTz6JTII9Or9RPPaacjVudKlqfIkS5jdp1tTg+oH9dlsC7lfd/zw6srlvzqG96H+OffbZZzpz5ow+/fTTyCRoU+ZdqyN1VSf3jm5ft9Zrtnei9bmAS8fHH3+sjz76aMA1Al7er3t3luvI8mRNlowPepfNOq2j9XDDUY0Mm9gIzXMe1bxeZ6pOGxz5qszepeblyZLOaE/piS5vPTKjRM0ZXX39hBpdkpJ6ntu2Y0093ziEv3/p1lvvnNVXF43fN97wDV1xeUxkEncUqsqZoZGtpVrkyNejpXfZNgrY6+057n15DxZffPGFzp49q6+++krnzp3T1Vdf3csU67QhKVNOR6GqGjKM92Nrqfac9Lyepb0NyzTZXG/u5hlqXmi8krbR1Y1zPPi43W6dPXtWbrdb586d05VXXqmYmN6+X85oT7ZDK1yecpWkOu0ptV/bV8ZG+acmNVu266s891ak7uGm+AxtXy5JyWpuWNbjZCpffV1tGeY1X1Mup806baOy1NzQlWs8WasajmpVj3PTdZ73/9mzZ3XllVfq8sv79+M+4sc+ZZm2T5Gkzj9z7bZrblhmBBWOfKnb96czamzoXlYjK7qfY557w8WLF73XzmWXRaafIXv3Ua2aYgTfc+dv0Sybe1S4OpS9CN87ImBg3mMxmHz++ec6e/asJOnTTz/Vt771rX7OkU+/DVtNczgk7dABs3Wp7XC5Kh0OpVlXai3VIodDqQEtVdbW+LneT/LAlif/XhJPq5N/S75dK1WTGv0WjNC8jGRffpKC07QKbDXz/O9p2fyj93WzMi5Jzkzf0CqbHk9PGouyc/xa7dpKc5S60iXJpRUOc58BafSkp+f9P32qlhZjuOOfGz9TQ0MUWs3ixytRUmXTiYBzYu1F9bXyG8cSeI79XzfOh6d1O8dXDt5W74DyVsD10G8tyZF3/vx5ffnll3K73fr444/197//vVfptZWWyCmHNq3P8DXkxGdo3pTANUcr0SGpoWnIlGU4n376qT77zOihv3DhQmRamWt2aIVLyt5trVwla17YSm6yVu3OkvXe2md59uN5r+ZoUXbw/bbH9/CAHgzfPTh43ZD3lS7cxz3SHA7JVa7XzG2PHNohBXxOtZXmKNXhCDhGa34cWuFtGA3sfQu8xwV+RvVsVMmFCxe8vUZffPFF5HofvULdZ6XoHHuoz4Lga8vvM7c75Rdwbdnvw9OoI8mVr9SkLTrSjc/tRZu32Iy86v3nWI+P2Yb1fvD5559HrvfRYsx4h6QmNbb6H3vC5rqgOpR9nS1wu0r/e4f1nDjyVenZcchRZaGu2eB9dbUHM/r3WAx1586dk9vt9tbjIjeKrPf675nHe2YoW5LzUJ2kM3rtVZfS7pmhRO8KRg+gNrrU3HBUe7Ml5/wtOlKzRXOdRkt7c4NLmxx2iVtb7Y+qucEY8tpWmqO5TqP1y9h2h+YGBgzxd2mWQ8aN2S/4MnskHYWqajiq5t1Zqlzp6DQ48wR3xv6OqtmZoTjvq8la1bBL2ZKUvUvNzgyNjM/QdjO/VRsdkjPTP/171qvZ3Mb5VKmUUWKsJ4c2uY5q1ZQQZdb1s6L2j/6ug+Uf6aJbuuyyGLnd0qu/a9ffzn7ZjVS6wAzS08aP1uTlZvk07FK2XFqx2vIh6SnvBqPF0ueM9mRnypm9y1telStX+z40XeP1iKccXfl6uia4vFWaYw41O6pmV6HSXPl6dAg8N9PR0aHz588rJiZGMTEx3pbPnjPen9J4JQYNyQvkaRUf7w0yK1c6IlKpGYj+/ve/q729XZK8rcrt7e368svevV+OHNohyaHEUT3YeFSC0iQ1HrO/lqOV51BmrTful9IOPWkGgD29hxu9Rke99zfjPW+/bsj7Sjfu44n3zFCaXDpw2KjQH3BK2ffM8K1Qs0WpK6VNLs9+dmju5jq1la42g/+j3nt2MPt7nH2+u+7LL7/UmTPGufec37Nnz0bnuZmg+6yicOx26xo9Tc2ee7dZ7sb5cJnX1lHtzXZphaObw6DNzxT7fZzQPKd5zToKVdWwTJO78rntKlSapMqGBD1uXrtylpvBaO8+x0ZG4phNdveGjz76qNeNj4GONwV+npjv3eX+Q8vD19k8291s2eqM9qzOV6Xntd1ZvpdCnKvQ12yY8xNCX99jMfR8/vnnunDhgrce9/e//z0qDTk91Y/jWO7SrGzJ6SzXkYUJOuByaNb68b5eP8/woJUOJaz0LGxSxT6XJIf3+YbEJElBw13NCmz2DEurvacCnKVZUyRphO6+xyGtLNdrrRmW51SMD4y7zcDPOX+CceOYbuQn7Z67jErxlBnK1g45D9Xp4fH2R2jcID376ypLy2KAxLHmMdtWthSyzBpbpclhK/2GuGuv0LK8G7qT4e5x5Ss1Kd/4O3uXms2eFF8vqskTXHrKO5BnmLMrUwmWwmo8mWP84UjQGEkjx46XzQUi3/Xg0tykHb7FTSckDe4hlrGxsRo7dmzkEzbL1N4OXzk6ClW1PFlqNYZUD+Vhq1dccYVuvPHGKKXelWC9+6Kb50CeY0jw9tZ5AuPu38NN5nDDyi6sG3RfqQl9H181xeaZyLFGY+KKV19X29hmOZWlvVOlJ/2ORVrhmKAVnm0a/q/2NVjv/aPt79md3OOC8t0Nl19+uW64IYr3cKug+2zg52wEjr2TdY9stvZcB19bk6dnSc4dOlCzTJO7+DmcNn50p/uwF+Zz2zPSxtOo5ul5+31vP8cic8weV1xxRVSvHef8CWYZObTJZTzmcEAK8dnSWZ3NrHTZbeepG3juB6MS/Ee0BZ2rTq7ZkPUMSZ3cm/v2Houh6Bvf+EZ06nER0q+zrU6ebrZGry5XpWOG7rZ5M3pa04yfEk37phS2UhU09LT7RmaU+FrFneU9aMXr/nMRxnCNTGl3QGtZNwWWWfAEDv3I0npstDIaQ0JSX52hKmsvxMlmS+WwE2aLYLOl9bp7fL0VzTYtn4PRF198oWPHjqm5udn74+mJ6JkRZgXfN3wvmKUcnRldeEZ5aPjyyy/1wQcf+JX1X/7yl1631BvDujofehqS+d7xNDYFilaeu6dn9/AjmycowVGuWS6z50CS2uzWDXFf6Tazwuoq16NP7bAPZs2RH957iPMnukoK09iiEPe43uf7yy+/1PHjx/3O77Fjx9TR0dH9xHoqksdut645/HCudnXSu9lLXdxHRD63e/05Fhmh7g2R6rX2jsLqg3pJYCOAFOZcdXbNdvP8DIx7LAazjo6OoHrcQJq5t3+/qmNKljY5pEqXK7hVcYoxrLXy1dd9z1GU1nkDTqNSZQwjCuIdemoN+sxKgNkT521tCiABz5YAACAASURBVAxaW0u1IXDooiNBYzz5aTInzzFbsLNDzuDn2V/XK4DWnsoeTYQToswGNL9WZbMHQbI5lgA25/hIaXeGd9mcn5rSITGs8utf/7qGDx/uHSsfExOj4cOH9yrNyQsLlRY4hK5my5CdPbWrLr/8csXFGYPRPbOhxcXF6YorruhVuiMzcozh6dZh53b3pkCtpVo0f4fkKNTDISo40cpzV/X8Hm42yJn3bON+KWmkzbrh7itdvo97zoVLla7g9Yxj8QxrlTGJVI0v4HytVaEng7O7x4XKdzdcfvnlGjHCaDjwnN9vf/vbio2N7X5i3RaFY7db1wwos6cn+zU0eM5HozmRl9Er193RP53vI1CvPrdtrt3ufY5F9pjtrp1rrrlGX//617ufWK91sc4WyLx3eK6XtsPl3sYH+3PVyTXbw3pGf99jMfjFxsZq2LBh3nrcFVdcoW9+85v9nS2vfp5+zfOmlTnkwjqrabJWuQrV6PAf5jgvY5n2Zu/QXO/wB/t05zl3qTEp0zuUzhg6V6K9TRM01zvEKEt7G4J7SRr9hn06tMllrGPkxzd8IW2jS6umSG3H7HMx0rM/T14dhdp/j3WNZD280SHnykwlNBSqaokx3GRu0g5zQqHwRmbkKHtlplY4Jqhx91H7MutSSv3EvDmvWOlQwkqH0ryHHXz+s3e7LM/EBp9jOQpV1eksbQHl7Qw4P+a5HgquuuoqnT9/Xl999ZWuvvrq3n/4x2doe8N4cybPfO/i7N09n8VyqBg2bJiGDRumTz/9VFdeeWWEbvDJWtXgUmK2w29YddpG+2ii0nrP8s4U3dd57qIpPb+HP36PQ1pp3BN890i7dV8Mc18Jvo+Hlmw+YmFWyK0NTFOWqWpjk1It5Z+9O0PzMtZr06sO/+GsNuna3ePs8909V155pb71rW/p/PnzuuKKK/p0lr6RET92u3WN50ud8yfIaZ3AyHM+goZH9oBnSHPgPjRC85ZkacX8fGNW493d/9z2icTnWASPWfLeDz755BPFxsb26wyPI0PW2TprFB+heesLdcBaDzJ5hvQGnqvQ12xPzo+hX++xGBK+/e1v69NPP5Xb7dbVV1+tr33ta/2dJa8Y90D78hAAEXH27FmdP39e3/3udyM21TrsXbhwQa2trYqPj9ewYcP6OztdMhjzHFZrqRY5mvVIJ19Tcqno6OhQa2urrrnmml6PPBgwarYo4akE4+ue+jsvQ9hnn32m1tZWXXfddQQ9vTAk77HoUx999JG++OILfec73/H7qpeEpAlqbjjab/miRgkMUcOHD9eIESMIHPvAsGHDNGLEiEFVQRiMee6UZyKdcM/bXSJiY2MVFxenq666qr+zEhk1W5Qwf4ffTM6IjiuvvFIjRowgcOylIXePRZ+7+uqrde211w647wil5xEAAAAABgF6HgEAAAAAAx7BIwAAAAAgLIJHAAAAAEBYBI8AAAAAgLAIHgEAAAAAYRE8AgAAAADCIngEAAAAAIRF8AgAAAAACOvy3iaQkDQhEvkAAAAAAAxgvQ4emxuORiIfAAAAAIBO9HfHHcNWAQAAAABhETwCAAAAAMIieAQAAAAAhEXwCAAAAAAIq9cT5gAAAACIjFNnpQefdevtFrfc7v7OTeTFxEi3jYvRsw/G6Ppv+5b/9ZOPtfjFf9O7J/4kt4bWgccoRreM/r623f8Lfedb1/R3dnqFnkcAAABggHjwWbfeah6agaMkud3SW81uPfis/wEufvHf9M6JPw65wFGS3HLrnRN/1OIX/62/s9JrBI8AAADAAPF2y9ALnuwEHue7J/7UTznpO0PhGAkeAQAAgAFiqPY4Bgo8zqHY4xhoKBxjdIPH1lIt2lznv6xmixLMZUc2T1BCku9nQ43UVpqjDTXmekkTAn626IhsXrPso600JyjNYHXaEOK1ttIcJWSXqi3U8dju10gvKJ/d2cayz8BjWFR6xr/8rOkPSHXaEFiGraVaZC6zPz7PNoFlaT2PPSlnf0c2h3ittVSLknK0p9X+iPyvVc96Z7Qn2265TV47Ob/e6zDwGPzK0NiX37UQVcb+rO8RvzLwK0NrOQRfm9bjDcx/W2lOQFrWcus8Lb/ysd4TzPQCy9lu/7LZ3ruO3/kIfW1ERnB52x1T4HVlf3/rCzbv8a6o2dKH1zB6rIfnyfv5jUue3Wftkc2ee/oZ7cke6PUYAKH0c8+jQ5tcR9XcYPysmmJ5acoyc/kuZTsKVdVwVM0NyzS5ZosS5kt7G3zb7VWm300qe7f5mqtQjfND3KAcDjUeCgwizui1V132Wa3ZogRHsx6x7Ld5ebKMylymtNuyfLc011rxzd5lvubSpoZM34er97iOam9Svh61fFhnW9LbnjHCu/zIoR1KczTpyUFeAQt1fFKyVnnKJNt3faya0oty9uNQWkN5cFByuFyVtjk1KvVPjnf59ttQonnxZ7Qn26ED91iWu2bogMMSZHTl/AZeo95jOKpmZ4ZGepa3vq4Dckgrd0T/A7dmixKSVqsxyeG3ePLyo7ble2SztRyWaXJAWqmvzjDLYZcSV642y8cIgh5tGq8078pntCfbd46rNjZpbkDlY2RGie997y3TM9pzbIbf/WBDjf+6zQ0ubXJk6RG/a82jThueSgjOY3yGtnuvtfFasboHwVJX2Ja3/TFZ3x+d3t8AoN/U6YDTobSGkig3ugHoD4Ns2OoZ7Xlqh7J3+1dQJy93aZPdTSr+Ls1yNKnR7uaVlKNHFLBNzQ4duKdQ2bb7bdImV0DFWFJbaYmc2buCAt+qjXYB3gjdfY9DjceCA7/J07NU2XTCJqNWdTrQUKjH18+QXn09OhXZASpS5SyN1yNLFLBNnZ5+dYY2BZ94qWaHViTtCghwzeUq1OPW5fEZ2r57vFY8F9yzGfL8dnaNWrQdLlfikhI9kr1DB6Ldsj9lmZobSvTw+M5WytKsKZJaS/VkQ0A5WLQda1LaPXeZQXCyHt4oNZ40/l7VcFTbFyZY1j6hRpeZrqSRGTnKbmjq5Dp3aNbUEZJGaF5GsnfpmPGO4FVrdujAPVlB71/jtXJpSYZfHg8cDr52fMcRYbbl3YVjkqTsGfbHFFVGQ47Tla9Ub4+spUfU2yMZ0CNds0UJ83eocqXDt45djy/6l915sj2//sv+WJqj1JUuOefb9/7TI3kJqSlX48b1evweu3up0fC6wrVDcy0jzsKNGgIwcEQ/eHRm+g8dm7/D8qJLKxzdGRbmX7n0GaHEJJdZKbVofV0HNEN3x9sk1dCkMdOtFf0z2vOU9EiGTY25k3SON7mUPT05aPnIseNtgoUzeu1VmRVef0cO7fBLxznfZmhaTbka77lLI+Pv0iyV67WB3KLnyleq9bw78v169myPrxORKmepSY2jZijR0oPXVloiLclQos3agefFwz8oshiVoDSbgCdUOkHXlvX9stl3bb726njNmmIEoc6gHvM+4h3GuVpabzaknGyWkpr1aIgP/pFjx6vS29Bh9OzbB/WSNFqJDktwXFMup6tZx/3W8VVYD0wv0byg92Sdnl45PuAe4Xlvhw5wA/Ps4R2qe2hGcANCn/E/Jm9Fa7X0+HKbayrqkrXKOyLE0wtfrlmeHtElzXq09IzaSlf790hPWabm3VlK2+gyetVbS7XokK939ZGm1fRSDASB50n25/fIZstIEGeG/iGjRFUbHcaoiuXJUs0WPar13p7/xKfoJb9UHDnUpFlTR2jkVLuG7hGa5zRGguw1R5z5jSgJbNQHMOBEP3i0DsNrOKrm3VmWF63DVu0qgj3jDUxWS49bh/4FmpKlTZ4hjK2v60BSlFrxvQHBamm95TgtAdaB6f7Ddq3DOj3LPTdko2fNvndkwLAM2fQMsUuzvGx3fL0WqpyDJOvhjU1mkOILzCKuk/Mb8hq1vl88gYH12pwyQ9nO4GG3fcI7jHO9tNoX9Fc65R3O7RteaZqyTHuTPOVgDM1MHBsqCBuheesL1egpm0NStiNBY/zW8Q3bnHUosLeqThuSSpQYOEKgZodW9PC97R2qO7089LPQURV8TN6K1nrp0YHw/HPr6zpg9iJ4Gggrm04YFceVjpCNQ22Hy1VpaSyZ67RpAET/C3F+J0/PknN+J8+JHzJ7L5MmKCHJoRWu8CMsMBTU6UCD2SDa5YZuX6Mg9wFg4Btkw1ZHK9F2iN8ZNTY4lDjK+M8ITFzapHw93Wmv1gjdfY8x7PHIc+WatTBEK378eCUG9YAYxoy3Hx7ZdqxJaeNHmxnaZT7DJf8hjZ4Aa3eWnE+FqZi2lupJp6+nNnWly9KjM/T1qpxtjJw6Q41Plaqts+GMnezXvsdT0slmVSaNN4LBTs5v169R6chz+ZZKdqac6oOhq50KGBZsGTo5eXpW0Nq+ZyVLNEvyvk9tWZ8zXJigRk9Z2vAbCtxaqkVJ5Zpl0wgV1OsbMFTS2tMoBfdESjKC9hD3gKjp5JgkdXnIc58IbCxanuw9l7MO2U9+JMno3WqIQkMSIsvu/E5Z5m1ICtWwYm0kjGQDMQauttISc0i7p9HAFaah+4z2ZJco0eV51j3EEH0ES4vR8eLLdM7y825muI1i9NKmy/RkmHXeXRUjSXpy1WV6Ka3TlfvNEw+/oA8fXtIHe1qi1/MeU04f7GmwGGTB4wjNWzJeKxz+FZEjmx1akZQT8ME0QvOcu6QwE0qMzMhR4qur9WRDiOGtkjw9VXP9PiDrtGFznbF9YOt6zRalrhwfNExuZEZJcM+MZDy7d0+534QqgdoOl0sBFa29SeEDj6EiIuVsFZ+hR5LK9ehTTSGGt4beb1vpFu0ZlaVNDZn+PV+tpVo0v0mbAhshQp7frlyjdTrgzPKbIKrZVWgEvp0cXnQZw08Tx44I6gk9cqhJiaOMoZVBz7DVbNHcTt9n/vvYszpfidM9k1IFl9GRQzvMhoM6bVgtPR44WY8kT/nNsp2My5ysaVSCpTzr9PRKmyHPNeVyBvWCRlNnx2RqfV0HXOOV2N8V8vjxSnSFvhdNXn5Ue7ODg9yRY8ersi8mgELvdHp+zSGICm5YGTPeEb5RFEOM8ciIdSJEYxKyzt7nJ9TovY91Mmkh7P3VreG5F80ft5R6mY4/EtPfueoDS5QS96nOfTNVe27p77xcei7v390bPWkrzP/SNrr0eLhNpixT826j58AjbaNLzbbPIyVr1W5juFlVyOGryXr4HunpsZ0Mb5URkFQpR6lJ+eaSLO1tWCZJWtWwyxhy4VnZUaiqBvv0Ji/fpQNJOdrj8m/DGJmxXrOyHdow9qgeljGs0el5Mft/a1ODNGu9/zFOnp6luYfqtGpKfzz31Dv+x7dLzcvDbZHcw3IO3do9eeEM6bnxYVrDg/ebttGl7fEjJKdLynYoYaVn3SztbSixrewHnl+/9D3X6HoZQ2+9BZOlvbslZ/YMrbJuEn+XZmm1XmvN6MOWfHOSFPO/tI0ubZ9iyb/5fjTKRv6NLN7tsrQ3xPnyaDMn3fDfh4dnogXz3+xdxvu+9XU1uvIt703zteXJUmuTGsMFffEZevwe33s7e/dRzYv3z0tX8h5RrU32xzS93PLcuEObXPbXW/Qla1ZSplKTyrXJVaJVrkItcvjeI9m7j+rhY5byy96l5nhJ8TOUON+hhFcLVeVcpqqNOUr13suNe2r/HA/8TLGepwzb8zvr0ATNNW8IaRtd2i5JU2eo0TFBCdm71Ly8RHubJviuYUdhJ5/DGBLMZ/gf9/tcStas7EwdqFmmWd5lxqiv1KQJxr1iY4l5H3AoO5uex55z65bfSMd/GqMn5dYjitG7xTH6viR95ta/rJB+vClGd10pqfgypVZd1HPXXqZ//Z65+V/dGr7B5jsIb75M535q/Pmnqou6ZZdk9GCaaUl6LveiHpH03x/xpedbNwpmf1/f+UupipShvMT7pHdfMl9YotdXTNP3JOnzk/qzpOqiPP1SUs78Z7Xmxm9Kkv5c/zPdtf8+7cmbLv31at154zclfao3Dj2oee9KuuUx/XH6zRouSe0n9Wd9bCRvXa6T2r0pT7+85TH9MVmq/+bNulN/0LqitSqJ0mEPFDFu96XyVaQAAADAwDY892L4ldJidPwOaYxfwGcEdX9Z4daNm2L0lxVGUKfMy3T8WrfGPCnzdXO5xZOrLtONb17UfZUxeneVdMsGt55cdZkWygwq02J0fJa0eYVb3/eua8nHm/K+/u/dONZzxb5BkN/d9LMubfPEw89qTN2DmqfH9MepUpEZsD3x8Av6ySfP6R92v2QGetfolU15+uXsIv3x24eM5TKCxuNFhzQmb6Em/tVcf3aRPhz1J3336RPak7dQ32n4me7aL2N50sfBQaEnzcbJ+uP0car3BJ5d8OGKF7pYOvYSkiaoueFor9LojX7ueQQAAAAQMWlS8pXSXcWXaaFn2V/tVrT0Tkr603eD13j9TTM4rZTq7jC2Sf2O9P2f+nok9Zlb/71SqpsVo39dJf27XQ9mxCxRyjdbtPtdSTqi+qkZmnaLVPLuEqXEndQrT5u9kO8eUf3U6ZKkJ0aN0vC4hfpwhac0PtUbt0jSSb2y21x//5/054cl3TJZE/UHFe2Xb3nSdd69P/HwC5ofZ/7Tbs650V7V5cBxKCB4BAAAAAa7NClZbv1WMoeqBvYCxvj9/dKmGLX+5qJuqTSGnC5U13mGqlr9+wq3lHmZzhXHRG3Yas78VH3vG9/UmhUvaI257FzifVKY4M0Yqmpdcp/2TO3uvp/VTz55Tt992uzZHHxPjUXEIJswBwAAAICftBgd/2mMWuvd+vdKqfXKGC0MM/tq/JXSXyolKUY/Ht31XbV+JqWHmphn10UNr5Lir43GxD33adp3pDcO/Uzf3eT5qdBfb5yuJ3RCf/18lFJmm6veMlkTv2H8+edPPtX3kro4Y+q7p/XXb4zTNM9EPLO/L89jod/71jf117NGT2VO4jjz2cdLDz2PAAAAwGDznRidK/YFaa//xnwO0Tt5zmU6l2q8ZvQEuvXbEzH6V8+EOX82/l4o6U+2w1rtuHXfCundYt++z/7ZrTF/MCbr+ba51nO5URi6estkTVSLivx6GZ9SdfsLSpn9ku46PFl/nP6CPpwoY8Kcz401SnY/qO89/IKvt/LzP2hdUag5gJ/SXfXf14fTX9CH02VOmGP4Zd0fvOmfaz+pc5E/wkGBCXMAAACAAaJLE+YMET2ZMKdLbvGfTGcgYcIcAAAAAOhHfpPZmF+lMdACx6GA4BEAAADAoPbLp3+mX/Z3Ji4BTJgDAAAAAAiL4BEAAAAAEBbBIwAAAAAgLIJHAAAAYICIicZXJA5AgccZo6F/4EPhGAkeAQAAgAHitnGDP8DoisDjvGX09/spJ31nKBwjwSMAAAAwQDz7YIxuT4gZsj2QMTHS7QkxevZB/wPcdv8vdOvofxgSvXOBYhSjW0f/g7bd/4v+zkqvxbjdbnd/ZwIAAAAA0LmEpAlqbjjab/un5xEAAAAAEBbBIwAAAAAgLIJHAAAAAEBYBI8AAAAAgLAu720C1157bSTyAQAAAADoxNUj4vt1//Q8AgAAAADC4qs6AAAAAABh0fMIAAAAAAiL4BEAAAAAEFavJ8wBAAAAcGn63e9+p8bGxj7dZ2Jion70ox/16T5hIHgEAAAA0CONjY3KycmR2+1WTExMn/zetm0bwWM/IXgEAAAA0GMXL16UJHnm4Yz2b/QfgkcAAAAAPUZQd+kgeAQAAADQY56eRwx9BI8AAAAAeoyex0sHwSMAAACAHnO73d4JbTpbJ5qvo28QPAIAAADosa5OaBPt1xF9l/V3BtA19VtTVFTX37kAAAAA/F28eLFPf9B/IhA81qsoxT6wad+Xq5SlZWrvZort+3KjEyjVFSl3X3dz49GusqVFqu/WNvUqSslV2elubGKXx7oiPTP2oPKSO8tbV4PLehV195zUFfXoPIbXeb6jdh0AAAAgYjzDVvvqp8/Ulmjxr2r7bn+DQGR6Hu+YqhZXYFjVrjd+dzgiyQ9G7ftylZJSIS2MQGLJeSqeE2f/Wl2RUlLWqSVxagR2FMgI7lJc0gNRSF2KU/rW6k6CYgAAgKHslPY/tlgFr5zq4rol6lYo07pfBYu7uU0PuN1uXbx4sZu/f6//fdejevmv3d2u5z2Pp14p0OLFi70/JZ0WTK1KXrxBBf88qbMUtf+xcOkMLZEJHhMf0kN6xr+HrW6nKn6Ubwk6zEAkxfjx9a4ZPZcpKSlKWVqmxn25mrnusJ7PTlHK1nrpdJlyt5YZ2y4tU/vpMuV61k8xewKt65jpeFI3gjhjeZHLmulQ+bGy5m2nWqxbW9O16R2Lm1Os6uo8TQtZaJa0Pb2TdUVKyX5eh9fN9B1DXVHneUzOU3V1sRaMDbkjo3w8+9paEaIM7HpVjeCuemnoozB6SsuMY9lar8DzaXsetvp6V+u3evbbzeugi9dT5HtLAQAAIqS1Vu/oemlfWXQCvPjZKtiWo87Cn0gIfOYx3O/2/Y/q7rtdcv9j97aLRK/jpJxt2rZtm7Zty5FKCrS/NcSKrfFKXztb13ea2vWavXabcqJdwANIZCbMaWzRqEXjtOjX9UpfOlFSu8q2Sw9tHaeK3xkhV/3Wmar40UFVb42TUcFfp7LbijXu14skZ7Wqvb1P6TqoXO28odjokTrdIj1XIe2vVvV1xhrF1enGH+YQz+Lb5LdO/dYU7axLV953y7Ru3Thtry7WRBnLn9GCTvOTfp3vsOq3LlLLmoOqnhNnBC+zW7z7Xac1qq6Ok3c469Y8TexWoU1UXnW18iQj7V/XK31pnqqdUu4HC4yextNlynVNU3V1npmfXJWd9s9jeO0qW1+occ5qFScbeU9plBZIqt+6TlptluvpMuVurVfx0u4dhSQdXteih6qrlad2lS3dqWme4/KenzdCngeP+q3duw7qt6Z08XoCAAAYmE7VvKP4+wuU+u5iVdVKkybJ6C3cJ916skxlrZLi01WwdpJqHysw/l+8WJNyjIDl1CsFKthn9Foay05p/2Nl0q2tKtsnpa9N1wf7pJx/niSjl8xMQ9L1cwpU8JPrpdoSFXx4g+L3lal2So62ddrTZq+7vYFXz9ygQzOlo79apb9cvKj+eYxxklKnlOmUpNpfFejUqHiV7as1y7FWJZZe3kk525Rz/X4VPPaB0rflaJJOaf9j26QlBbp+X4n0zzmaFHDeJuVsU/qH5vmJT1eBJxCtLdFib1flJOX0QXAfSZGbMCd5gfIbK8yewDdUkTjNEkzVq+K5B/SQd+jlRC1YI7V8KE10PKDns8M8F7jwoYCgzuxZyn5eh4+dDFpnosPo72x/u0Jas8CbD8/yzvJj2Yv/OtfdqWl3mK+4zN7BlBSlpMxU4ZstaunOc40mb2/c7EIdbmwJ6iVrf7tCh59b5O1dW/Tc4YA8dsHpN1ShfC3wBFPJ08ze4HpVPHdYhbNTOs1DV0z1lPHpN1Tx5vNalOJ/fkKfB5/uXQe9vJ4AAAD63SnVvhOv1EnSpFsmqfZdS99jzTvSEqOHLGdUmcpqr9fstQVKj5+knG1mT1dtibZpsdmLVqAbXvQEO7V6R4u1bVuBZsf7kqz9VYHeubXA2+sWv2+bt9ft1L4PlLptW48CR6k3zzz2bNuIaN2vspp4XR8vSadUdjLVKO9JxvBgeXoo16artaREtfGztXhOq8peOSXVlumdWxf7la8ky3nLkUoWe8+PcQ6NfRaUSDnbjLQL5rSqZJA9UxnBr+qI050/atG6fe166FiFpv1jsdSV6WWS81RdbQ5BVL4Obk3vdPX2fbl6ZuxBo9fvdJlyfx2Z3HfXA85ePqtXV6SZxx5SdbVRTkVLW2xXm7rmYOjnHXvtAW2v7m6PaRh3GOfQmuP2fV3YrpvXQXfSiVbpAQAA9Fhrrd4ZlaoCSZqUqkklVarVJKMXakq6NzCZdMskVdlsXvturU7V1Gqxt551vdJbJWmS0n8SONiyVlU1k5T+z57lk5Q+p0xl5qOW189J71XvV0+fQ7zodsvt7tuex9qSxVosSbpe6WsLNElSra5X+hyzBFpr9Y7StdhTIPGzlT6lQKdapUk/WaxbHyvQYqWrYK3NgFbveYvXDfGTlGqeB885PFXzjjRnsbesr/9JuiY9dkqnNCnM8NiBI6Jf1RE35yGN+906PdM4TXf6Da2cqGkLn9czlufSdq6Txn3Xu6XStx5Uvlp0Msw+Th47rHE3GOFA+9sV6mxKnrgbxunw797w9qbVu57vYn4kaZTG3fG8KjzPM55+QxVvmq+Mnarnt/fuebr2D1o0dewo45+6Cj1vs07cDeN0eN3Obs7wGuC6cRr3ZoXe8PTEefdlHN8zPZ59NtS+CrUz4BnQ0OchUFevg8hdTwAAAP2hdl+ZTtWUmJO3lKhWtarqZieU7/m9bUE9jX2tu88t9vZ3T/nKrH/La7CK8Pc8TtSCH0njFgX39kxcul3jvEM9F0lO49k97xDUlJmq+JExtDHutmlq8UyUEpjOP+Ybr6WkaN2xcep0jtHkPG1PLNRMcxhlhWX6nlD58YlT+mrfvlLWt2icOWw1bk6xX7o9mZglbs5Dvv1bZzNNnmYsX1qm9uQ8HVzT4hsGajupTTgTlecc5xue6t1XnNK3Wssg1KRB3dzXfkuZeSYT6uQ8eHT7OujG9QQAADCwGD2BOdsswd/adLW+uF9dmXdVkuJHXa/aLq8/SalTao0hl+b+y/ZJN0Sou8v6HYyeGVG78r/bGLfa7e2jKn6SbpU5zFTyG9566pVteufWAhXc+o62dWmGXH/XT7nVb3KkU6+UqXbU9YOm11GSYtx9+mUpgDnZjYOv6AAAAJeo2hItfjc14BlDcxKWn92qd9683vcVEbUlKlGO3wQ5nglzan+1WCU15ubeiXXKdP1azyQstSr5lWfCnFqVLA6YBMZ8drLgdrLpqwAAAmZJREFUw3Rj8pweKCkpUUZGRo+2ff+ZNfogfZ1mjujedqWlpcrJyen2/k69UqCy7xYEzY5a+6sCnZpj6Yls3a+Cx8rMwNwY3jpb1glzalWyuEw3rA2cMMdz3oyJi7znweYcSvKfSGeQIHhE9J0uU+7sQu8Q4+g+xwkAAIC+UlJSop/+9Kd9us/f/OY3PQoe0XsRnDAHCOG6dN/XqwAAAGDI6aw/KiYmJqqvo+8QPAIAAADoscBnEQODvUj/j/4T4QlzAAAAAFxKrN+/aPd9jJF+Hf2HnkcAAAAAPeb5nsdwX6sRqdfRfwgeAQAAAPQYQd2lg+ARAAAAQI95eh4x9PHMIwAAAIBeCTXkNFq/0T/oeQQAAADQY+GeeSRwHDoIHgEAAAD0GEHdpYPgEQAAAECPJCYm6re//W2f7xP9I8ZNUwEAAAAAIAwmzAEAAAAAhEXwCAAAAAAIi+ARAAAAABAWwSMAAAAAICyCRwAAAABAWASPAAAAAICwCB4BAAAAAGERPAIAAAAAwiJ4BAAAAACERfAIAAAAAAiL4BEAAAAAEBbBIwAAAAAgLIJHAAAAAEBYBI8AAAAAgLAIHgEAAAAAYRE8AgAAAADCIngEAAAAAIRF8AgAAAAACIvgEQAAAAAQFsEjAAAAACAsgkcAAAAAQFgEjwAAAACAsAgeAQAAAABhETwCAAAAAMIieAQAAAAAhEXwCAAAAAAIi+ARAAAAABAWwSMAAAAAICyCRwAAAABAWASPAAAAAICwCB4BAAAAAGERPAIAAAAAwiJ4BAAAAACERfAIAAAAAAiL4BEAAAAAENb/AxcjerIGlaYFAAAAAElFTkSuQmCC;" parent="1" vertex="1">
          <mxGeometry x="275" y="167.54000000000002" width="150" height="37.54" as="geometry" />
        </mxCell>
        <mxCell id="6sN9hePH6n2u5998fX2B-2" value="" style="shape=image;verticalLabelPosition=bottom;labelBackgroundColor=default;verticalAlign=top;aspect=fixed;imageAspect=0;image=data:image/png,iVBORw0KGgoAAAANSUhEUgAAAWsAAAITCAYAAADB3z1JAAAgAElEQVR4nOy9f0ycd5rg+ZnL6DzKKj5FByNWttVOQdg1ztzSsHd02qfXJBYdrHWnoy2OEfTG2iJlGV/7Or3rgwALN90LAQyX3k7LvablGtfI2YCMqLnuxLOmU3KMX6074S6F665jvFtTVUqv8QalmIna0UbDarJ1f7w/6n2r3ioKKGxe/HwkJOr98X2/b9W3nvd5n/et9/N7//W//tc0giAIwrbmv3nYHRAEQRDW5vd/7/d+72H3QRAEQVgDyawFQRBcgARrQRAEFyDBWhAEwQVIsBYEQXABEqwFQRBcgARrQdgoy3f44OY8t5dL0NZXXxCPzPNBJMn9r0rQnrDjkGC9XpZDdFTX4KmuweMPkSp23g4iFerU9rG6Bs9Y9GF3ZwuJMmzsZ/U4C9ZZn4f5QbOX7/p8fFtp563fbm5LtwNtfKvNx3fbjtEwPM/q5poTdiC/X+oGF8ZqaAnkmfl4GQc9lVT+j008/22FFw7sZddjpe6BsGP56gviN95lejbMBx9Gub1shLQnqHqmhprDxzhx3MvBJx9AX367yK++NF5EubsCfG2jja2QuJU0X63+don7NFC+uR5uMavEJwf47tgVUpRR9y0fZ77XzrNf2wXRNznc+me8OH2LM7UPu587h5IH64J8ucLtj1e4/fE87wSBJ2t5uXuAMy8dYHeJg/ZqKsmC+i6XZ+7x/L8a48WK0rYvPFhWY5P84OUhfvW509wviH88T/zjef7wf/ZysP4BdOiPvPykVeUH00mqWsd4eVNBqYwXTnfx7K1xPqCBvh8cyw3UXy5x+32V6auT/GHHFb73IPaxEB//Ga/88Ip+9rjCwi/G+e4vxjPzH2/nmwceUt92KFsarOteOsmze4xX/4W70Q9JJJKZjOjzKG/1evmlOsa7Pz7GvpIF7BV+2XuMHhVA4ZulalZ4ONwLcap1iDkzk91F+QGF5uc97AZW70WZuzFP3DGQbxGP7eWFoRB3hkrT3K5nfLw978s7f+Hct8wzVn9Haba5GVL/4RZ38XL+o0Fe+Dur3P1wkjcCIeZuJlmtUDjzr7t4dtfD7uXOYmuD9R+/yhmHDGD13jxvDQ8yHNZO/e5f7eaVPXt5t7sW+XwFO6t8cNESqD3tXPyzfhqzzpT6vlrl7ocTzElZ7YFQ7p0g6TVe7WLfIR8/OZT/YCNsnodygXHXngb8Pwsx4/eY0+KBfgJ3HkZvhO3NHX4dylxue7mvKydQA/DYLvYdenWT5QhB2L482Jq1jV3UnfkpP/roGH8SBUhybmYe/0BDbna9HGX6UpC3rqh6CeUJqg4dptXfjf9QmWW5EB3KAHO2lVV6lBp69FeNIyoXvZl17idVfnkpxPStW8TvrGhX4Z/08OxhLyc6W2j0PLG53VyeJ/DjCab10/RdFbW8cPxV/oWvgfJ8WeBXKyz8IsiFS+8yp/dpt6eBxpbO/OvdTzJ3ZZLLl98z1+FJDwf/4Tc4cbqLFw+s85wlq9886eEFbydnTh/jv1tr3c+TzF2d5PLMLRaSd0h9CeZn9nInrYc967pGsfrl2susyVdfEL8xw7m3rvDBLUufnvkGjd/1ceKl2vyfhyNRhqvb0SoTPmZiXdQ5Lba6xMKVKS68fYMPPk5yH7QL7V//Bo2+bs4o2lhMhTpp6FUB6xi1biNDoK0mM80/SbI7c4Ta1Hgusq+ZZUNcuqKyuHhHL0Fp5anvHF/j/fxqlbvRK7x1cZK5j6zr1vLst32cblWo2p2/m48qDzFYA495+M7xJv4kGgZgNfQhtwcabIP+buhVvt0b1gaOyRfEb15h+OYVpv1BZs40bOgC5cLPGmh584vcGZ8n+eAX43zwixD+qRB99Rsrzvzu459z6p+8yYIl2KwuR3lnzMevPhpDnXC4kPTbEKdaB3IupN1PzvPO2DzvzPh4e7qLZy2DefXjn/PdrO0Y+3E7nOQXz3euK1jfvTrAK6+GiGe19atAN796/w6jf1xg5ejPqW19M+vzAvtnNrmOklcl9ccgcEV79dbwT2mute//mvz2Cj0nu5lOZs/4gvjHYeK9YQIXvJz/00Fe2OPUwMa4H/05Hf/U4XP5coXbN69w+0C7PQBuks2M53X1NXWFU03dlrthDFZJ3QkT6A3zVniQ937mzb0OdT/Kz076eCOSfXPiKqk787xzZ553ztVy5t8E+d4zUhS18nCDNbC7poGDhLkN8OUd4stQp5/mpn7Rybd6VT07aODMQDcvHipndfE9AoNDTCchHujkB9VhLr5UBk82cDoY5AQprr/RTeBjgAP4f9zNc/rtXLv2WzKL//wFPF5G40udvNRUQ03lXrj3IXMXJ/R6epLAK+M8N9+//oslfx1m+H9Tuf21Y3zv+DG++WSK62+NEbipfZlW3x/g3M0mfnTI0vDyFTq+M6DXZ5/g2VcH6Dt2mD/8apHZC4P8SSgJySAd3QcygX51nmEzUO+iztfP6W83UFf2X4gnFln45SSR9fT7zs9tgXp37TFe/uNjfLPiPvFwiDcmg/SMFFj/q/vcZxflz3s5fayJgzWV7GOJD94Pcm4sTByIB3wMH/rQvu95eYLG4yepuvJzrU/JIN9tWsQ/0M3po0XcRXQvZHlPYVeFQmvnMZq/tpu7d1R+eWGSDz4HkiFOvbKbmT/vou7xIrq1BquRcVragub7uKtCofV4E88d2MuuzxP8+jdRPljzFKWS1mCQ54Db0z6Gr2pTX+gNcrxaX6S8MrP4Bsfzuvv61SqrX1rGxt/zcPCJL1j46ArnBoMsfKmN7392uYGZ9r2Z9b6MMtzaTsA4aD5Zy4vtXl76h3u5/1uV9y9P8s6dVfgyyhv/5FXK/2KC1hIePF1PusREzh5IP/W09vf6R0Ws8Lv30q8+baxzMn35U336X7+XfvUf6NP/wcn05aWs9Wzzx9KRv7XOTKUvv+LQZnZf3307/fHvHGb8bSJ96X8x1q+178enM2mf0d9XZtKfpfPMe/pA+qlX3k7/x7/N1+6B9N//yS3LzPvp2X9Wa27TN3M3q1P2+WafPhrLbK/nRvpvnHb0b50mOnE//cvvZ/rXdPbD9O+y1v2bj8bSTdZ9PHvLvsCtd9OXFu87tv6Xl9oy+5693hr8x3/bb9/u0wfST/1PbelXL3yY/izv/lnfswPppn95I3fZv72bvnwys4xybtG6M+nXze2NpSP2Hc0/729upV9vPFB4u1l8NnPSXN43k8qZX8z3akPjeQN9TX92I335Wm4f0+l0+m9uDKb/fp7vx8cT/yjz+Z98O/2X/zm7n/fTvz6bWeap77+bdtqdR5WH/wvG3eX8ocPk1Psh3tGzoYOvduceYZ9s4o+N0/EvJ7n+m/Vvuu5YOwedTqcf8/Dst42bRFeJf7Ky/sbZy5kftNtPAx/z8B3fMfPl6p2lzK8cl9/j8hX91PCZ79P3kiUjAeAJXmhtN/v01r9z+OVgKsVnTj9VLrZEtPwev9CzNx5v50ev5paXdtV/nx+9XCAjrj3Gywec66JVh45xUP9/NZZY1y889x0d5N0rg7RayzmfayWlhm/6+NmHDp+R9T19vJ2+M0puHfWxvbT+8++b/bo7o2pneZvg/vuTBO7pL5RB/rTPYbtbwEbG84b6Wq7Q+rxz+WZXg0Kr8UJNctf4/6sovzxvpNS19HW3U5V9BvPYEzx7ujuz/lWVD3LraY8sD70MwnLCXhsFYJXbv1H1//fS/A1PzhIAVdUKoGrLJ1agdmP1v9Xf3mEhscjt3yxxN6aykFjidtKh9rcumnj2mdypu//uHnaBVtr520zdbjV2x7wwuu+Fb1Dl9IXZ76ERmANWf5MgRS3lzyi8/HiQt74E1AG+9Y/nOfPq+i/iZfeBP27KU/rZRVVNA9r7XoAvl7h9K8ntO7e4u5Rk7v9LcNe4aLVBdlV7Gf3zY3zvw0neeHOCd6L6Z/T5PG8cbyIyEOL8yx6zFp69P435yhvV36B5D9y+B9y7xe1lOLiJH1Hdjl4x/3/5eCl/P1Ac6xnPm+rr6grxjxMs/ocP+cvf3mPh/0kQT95xPgj/dpEPjBr3N7w0On+l4fGv89wxmL4CcIXIX47xwsP+AdA2YRsE6yU+MF9Usq8c4As+WzKmLfHGd2p4Yws2fT8a5Aff/ylzy1vwJAbFwz6n6RV7eRay7liB+ylzh7n7hhdPsTu8q4G+Pz3Jwis/5/aXsHrnCsOdVxh+vIzG9m7OdB5zzrYcsPbh2coNFgvvRwl0f5833l/ZmudbPJa5p/dffhxi+F8MMX1nFVhlbtDL8Nc+5EeKFq6t+9NYXZmnQYByrfR7D2Ceu8vAhoP1CncTxv8NHKx8cBfJ1j+eN9jXr5Z4Z7Cb/2MyWvzB9/N7mTOWZyqdvxsAPEG55b2P312B+tJdhHUzD70McvvmX2S+1MdqOfiAspDV6Ju0tI7rA/sJ6l46yehEkJlZlehHt7gxojyYjpSAXfWv8q4a4id+hXIje/xyhblAN99W2vnZx+sPm7se+4P1d2Q1yhut7QzrgXp37TG+NzLB21NXmJ+f5871QRrX32pedj/jZfTP32X0eTOX5q1zocyp94Yo5w9KFl93FV+C2iSbH8/F9nWFd773bX6gB+pdFQov/3CMt4MhbszPc+fOJP5N702G3bvkjhCDh5tZfx7mwgUj+9nFy14FIwn8A7NntfT9+c/Xvir8+Hruh/6CuUv63QXsxX/pXfq+YR8Uv/vqAT/3zPJFqesNcTGnZp29/H+LLWHefYAXuyd48Yx+P/GbP81cWf/f/4zGvzi5rgPhB0tLgHNG8zd53pv770/yM70suc8X5L3erHvmv6T02fZje2nt7uKt94e0zC2qcivVzr5y2PV45h2aiyXItz+QImVmmB72bTKRy4xdlfgnbCJLL5aNj+d19/VOiDfe19tSBnnv51m35+X73jy+m32gHUg/TnCX2jzZ9RekzEfO7mLf393k7xx2EA8vs/4yyVu93eZFRJR+/OYAK6Py60awihL5BHY/+UThv3UdgBNEzFKdwje/nr3yKonF+Y3t1wYp/3tfNwfvQjQBa+1vvh1+7Amqnvfxk6kJ/MYBLnmL20VczSuvPJCp9/5intuOz1X+gls3nd+b+G8y9c/GQ7n3Ua8m7lhKXlvFboxkbPffqzUvHPKeykK+I0XyFteNi2zPKNRs6nF3ZdQcyjzB6K1Z9QE87nSj43n9fU0t3jLPXA4e/npujfu3CefP2HMgc1b1YZgP8j0D/Mtb/Pp944WXenkYlMmDD9ZfrXL3ZpBT//gYf2IcoR9XGP2R/Qh98Lk2qvT/f/XGm8xt+OHQKrdjhYbgLeJZzyJejfyU4cmNbm+DHGjiZeOiy9Wf8sb7Rd6Bku9B9Y/voSp/YTBPH75Bq1FGufcmb1xeylnkbqiL167mTM5hIXHPPuHLKG9s6E2NEuifZOFens/wqyWmx8Yz9dDaWmqMhNrzLV42zv7vBel5cz73wf76+sazqhu/+y1z3G2UKsVr/rBrdfJVTk3nvo98tcT0lY09C/yDxZxf91hY33jeTF9vLy7Zg3v2Z2FlVwPf8RsJmMqf/DDE3ZzP4gs+ODemXSwH9vmPycOgLGxpGWTh8pu88e/0F19arhZbf/nkyfPLsep2Rv0hWgJJuDdJR9N7NLa/yvFDezMZ2+cJrqtX+OybP+UnL1nPXZ/gDy1VhLe6OvnDgU7qWOTXu77NmSbrr+LuMPz9V+F0OwefhNSdEBfOhcGzF5IOA3fL8PDy6z6m24LEWeKtziZmn2/nTKvCPnOHU8RVlV+mFM7/WP9RTHSc2rOpzI8T9vwBnyUX+eD/epPhD42mG8wfGhVkVwMvn6nlrUHtizn3w2/ToOp9YIlfX5kkcCXJwdoDLERzH+RS9UfHAC3Fuz3yfU591cnxA+Xw+SKXL/yUX+FhH8l115Q/mx6iZXrI/Pl8Y7V2anw/pjJ70zqedvHyaa/l9LqM1h8NMvuPtB/FxAM+Gm4ew3/8GN+s2EXqt2Euv6n/KAbY9fwgP3qpBBezvtbO6MAVvjUYBVaZ6/8WtTPGj4t2kboT4tKFKyx4J2k9tmZrAOz+uwcA7T2//UYXPY+9yncqUlxfrqSvfRPjeZ19La/5OvtQtc8w9Crf3d3PaWUvu1aXtB99fbqHKpIOd3jtou70GP73tR/FrL4/wOFvXuHlV700f62c1eUP+cWlP9NKdwAeH//qtDzYzcrWButf/Nxu17DxBM/6xxk9o+S5XWgXdWcm+Mk9Lz+4+oV+wWyAOQexQWND7rqNf/wqVZNvaoPm83ne+OfaaWDjyLeBJ3jhzCCN7+u/bEuGGf7nYXPtKv8k/7pygm/1PshgDbvqu/jTsSW+3R3mPquk3g/S834wd0HFvsP3o1f4WfQKP3Nq9MkmfvKnvqKzxar2Mc4vdnIqlIScPuzi4PeCjO6d4FsOwXr3t77P6PNhet5fBZL8aqybXxkzPT5mfurh3LGBjV8A1H8+fzvsNNND648nzDtBTPZ4Of9v7tPxyjgffK7dLfOz3tz3avfRfmZGHH4evUGqXg7y7pc+Wt6Issoan1Ex7R3r5MU3XtXKhl/eYfqHnUwD+Cfp2+R4XldfD/xT/pX/XS2JYpWF4AAdxvB4XGH0L3zEn/M5BGvg8Vr6/vRN7v+v3dodPJ/P89YP53kra7FdB3ycD5Tml6Q7iQdaBtntOcDBpnZ+9OMQN34zz9vd+QK1zmN7efHNeeanBvE3Hcjc6QDsqsi0ddYpGzpwkplfDvJyfZl5dN7taaJ+v/5qj5eLs0HOWNrd7WnC/+MQM2dq135Y0Rax76U3iaqTjPqbOFhhCTyPl3HwmSZe/uEY7w55M88U8Rxj9HvHePZAZj95vIyDh47xvZFJ5n/9Ji+u5y68x/bywtAU7/7Yxwtmm09QdegYfcEw775a4L15bC+tPwvz9quWvj/p4QX/GO9Od1G3oYfz1HLmeoif/NDHi4cO2N+TJz0cPHQM/w8neO+jK4wec74ou+sZH2+r7/H2D9t54RlP5sLskx4ONvkYnVKJvunwI41NsYuDJyeZn53gR+3Wz3IX5QeaePmHQW68uo5HBD7ZxE9mg5xpyvR/V0UtL9boY39T43k9fd1F3Zkp3h1p51njoVCPl1H3Uhdvz07QumeNXHhPE6N/rvLuj0/y4iHLd1ofs30TV5j/8y4at7cm56Hwe+l0Ov2wOyEIwvbBeAKgf2qRPvlByrbhod9nLQjC9iTQ9nUaOn/OBzvV/OwyJLMWBMHO6hfc//J3fPBmB6cml9j1cpCo03PmhQeKZNaCINjZ9QS7n9xL4/PafY+r91KbeqaLUBoe/rNBBEHYRnxB/OYiqc8XuXROuzm7TqnNlWQIDxwpgwiCYCGjEtvtaeA7J7o581IRkgdhy5FgLQiC4AKkZi0IguACJFgLgiC4AAnWgiAILkCCtSAIgguQYC0IguACJFgLgiC4AAnWgiAILkCCtSAIgguQYC0IguACSvZskA/n/+9SNSUIgiBkIT83FwRBcAFSBhEEQXABEqwFQRBcgARrQRAEFyDBWhAEwQVIsBYEQXABEqwFQRBcgARrQRAEFyDBWhAEwQVIsBYEQXABEqwFQRBcgARrQRAEFyDBWhAEwQU83GAdGcdTXUNHaOWhdkMQBGG7U7pgvRyio7oGT3UNnrGoZcYK036n6VGG24L4pxa56C3LaW5hrAZP9TgL5vrjLJSyjzn9ySUV6sRTXcNwxP7/Wsua+7xG+wWJjOOp7mR6eeNNuJblEB3Z711k3Hw/tbGR+TM+n+EIZgJg/9PHTvY8yzaMz8/aZi5RhvPMS4U68fhDpPLtj+N2tfZy+rmedSzbzN4HWxIUGS/Nd0h4aJTsedY2AmEWumupA1i+wazqsMzyXk7EFilfs7EyWgOLtG66U1GGlQHm/JMku2uBFaZDS0WvXe6dIOktdv4ScRWo3nhvU58kNr7yjkdhVJ2gtSIzJfWJ/k99F8lYFxBl2J/gRMCrjbHIOJ42mIktauMSPeiPGeMB/FOL9NWjBUplnIVYl7lsZtMK8WtRqK+1TFzh+lUVaMrtqmW7F20zogxXt8PUIsl6y7LV48wY27WOVb/CcETvnzLIvL5fC2M1vBY6bCY85j5ksXAtSKOicC604pgcCdufkpdBGhUFCDKrZx+pm2HmFIVG60LLIToUhYasLMaaMbUEjIWzM2tLpm7JHuzZlkMGsZwgbptQRqu3NtOffBmJTnZmbcti/CH+vTlf+xIGAALtWuaTJ0sy2ujwZ9oyssSGXhVQ6VH0bWa1kS/DF5xYYfp8EP+UPfjWdauMxiZyz14qDtOsJIg7ndVUd3KarHUiQWaPDuJ33G6CUTU36KdCEwT8k/bAWt/F/EiCcznjr4znjirEP8kdl3VHfMwl1ko6oszGBjk71ARXbzhn/8K2p/Q166NN+IHAtShGxtF4tIkqcwEtw2VEJRlbZMYPgbZxFiLjtASgcUQlGVMZVZwa1zKMHtXHTGyRZEwroaRCnbQEtKxCWzdIS/YpacVhmhW0AGoLdnrGrQwyH1skOeVjrlcpGAyNYKptb5FkwMt/b86tpS82qX1x/ZMkA17KK7xc1Ps7P6JAoN3e/tEhkvo6gfMh8E5oy6Ewqi7SV5/nPSv+U3Ef+udk/rUFLTO1g5g2r5hS0RJx1UdzTsZZRlW1Svxe1uTlG8zSxHMV2csDsQT7jlTSc8koS6wwfR5Oeytzly3Qzt2Eiv9Ibc708v2VDsF3hetXofmQQ7nwWtDWTqDN4YAeCRM/epjyisM0E+b6o1ha2wFswQXGwzT70UohyzeYVRWaD1kGciRMAJjrVSwZdIL33wkCij4gy6hyLCHo5QV/kyVTMU5BjS+jloWgZg9KrZyiBUF9UI9Fzf40Hj2snS7XWw82ztxNWLdXLFqtUcuY7VTtLwP2UuV4gCLve+aY+e0U/JPagdD4m/JZZmoHMW2evRyyGcxA1w9njfKJE/U+RmNh7WC5fIPZ6qbccklJOmQcsPphyLKf6oB5Vjp7xF72MBOIWGb6wrWE+b167ijM3pQL+m5kS+4GqTviA4Kc6w8zpzhnFo16lmh84Z7/OwCVVBX64uWUMtZPuXcik7kHwhvITleIx9a3hlbu0OuTtqCzPrLfs1IFqZ3PXqocyxorxGMKVXu0V+aZGQNcKFhmKuO5o1q5YuFSmObjuRkyABWVVKlJ7jrM2lfpXNZIfZKgsXKv3qFJ/WwMSyaPVrPWD2CB83kuahoshzgXyJyJNPSqzEkpxJVsza179T5GFZhT1UzGas7TMtfMgFlhOhQ1A7xW644yG8hp1VLKsAZZPZM2M009084+SCyHGM6uBSoe9hn9MU499SzW6RTVvr1MXX4trJn4hi4c5nnPhGIpo/VUJT2KvXS0MKbQU92ZddArozUwCWuUmcq9nVRd7edcLE+5BIBaTowkskpyUYbHotr62eW2yDgNvZWczroAWO6dYIb23NJcfRfzR8O8VuDW19TNsFk+M/5mqtc6GAnbka25G8QsRRh1NmsNrpY+dZC4MkBD9YA2yT9Jq7eLGX+QlrYanOK00W5rYJJ4dTst1VoNs3FE5aJ3gplEDS1KDT0A+JiJ5Z7GxnsVPL3GK4VRVVtG6087Hn3DjSMqffWWOwyyKDe2Z/RVGeTfHrUuUcuJEYVAbzue2CDzp3wQCNJSHdQvwK5NubcTf287PUoN8alF5/esqJZ2Ilqm2KO/ahxRObvWKvVdJKe0W/cMGkdUko53RtTSNxXG4w+Zd104LXPiKFzYX6BcgjZW5unMfG74mIl1AdAXm9RuwzMWVgaZdxi3AHXdk8xWdzKtdma1P0SzX2F4/yIn0Eo55vfH/68ZjUHzkH0f6474aLkWpa8+X0IibEfEbi4IguAC5OfmgiAILkCCtSAIgguQYC0IguACJFgLgiC4AAnWgiAILkCCtSAIgguQYC0IguACJFgLgiC4AAnWgiAILkCCtSAIgguQYC0IguACJFgLgiC4AAnWgiAILqDkwTrbPN0RWnE0Tue6E7P0TOY6j6jhW9CkDVbLudVDaXlGtG3MORjlF8asXs0sO/hmDPSC8AApYbDWRLYtgYwfMRmbpNmyhKEcmh9RmOvtzwrCqk03tHDN6twTHi20gPpaotImWl64CWcNl6Xloft13cZ4UxmNZT2kfznEbCzrGeJWZVi3PNNZcAelC9aRID0qWQbpWlodHu5evr8SsIpKFRoVqwlFM8UU+6B+YadRS19skYvHPbapdd7Mg/m1MeSE1Y25wnR/kuZT+ZYVBPdQsmCtZcIZn93ay1q/VJU0WyW3kTABfDQfzd+G8CizwvT5RMb2bZZH+mEokywsjCnET3XZZbbLCeKmiFZKbIJ7KHHNurDw1rBHtzBJMmb/ElUdaqJRL4UsXAuCv4nnSts5YUewwrRfIX7KIgyu8HIxtkgyNgT9NQxHtHr3uUrVZv62L7tIUm1iVinsWhSE7ULJgvW+yrUlsn7D7h1oz72wo8tw5672cy5QSFgrPLpEGa7uh6HF3CAMGO7P+Cc3uNCrMteraBl0W5C5XsVykVHHEDALggsoWbAu93biBwJWK7STUby+ixk/EMi2NZfResoHqsqcrUQiCKBl1GGaYxNZNnL7MtevqlTtP0yfxeadnPLpYuWs6yeRID142LfVXReEElDCMkgtfTGVUSVIi3FblDJA3GHJuuODNKIF9ph1Rn0TfgB/k73OKAgsEVctY8u8fc96K57C7FGH0ocV622kbTCT114uCNsLsZsLgiC4APkFoyAIgguQYC0IguACJFgLgiC4AAnWgiAILkCCtSAIgguQYC0IguACJFgLgiC4AAnWgiAILkCCtSAIgguQYC0IguACJFgLgiC4AAnWrkBTpnn8IVLLITrEGygIjxwPRJibCnXiqa7JeiTqVpJ5ElvOM4zzEUGpjLkAACAASURBVBnfnDlEt5Vo+6gH1+oSPdh++Qaz1ZMkTyVpUAaoekSe9b01wlxBcCcPVJj7wIiECej/ZryOhUl9ktjcNu8lmTNflNEaWMyx4WyYCi8Xu2uhvotkLN+D93cSWyzMFQQX8kCFufHznWYGNBzBnimZWZGeFZuZk/7aOm+NrNlwPI6OWLyO6JmamT1ntvPvQ5009KqASo/i3LfhCOazkDv8nfY+RMbxtGk29kBbDR2hWE5mbZxdmFmh9bnKtn0xsvLMdPvZiiX7z+rjzskeRZgrCDmkS0Tk7IH0U0+fTF/+NHfeZzMn0089fSDtm0ml0+lb6defPpB+6pWZ9GcOy7z+UVZbH43p01Ppy68cSD919pZleaft6e2fvZVOfzqT9pnbzV7H3g+necZ6Wn/G0hG9L1of9P48PZaOpK39TOfMs+5b4fcuq80crH3Oeh9t298hfDqT9umft51U+vIrls9e/5yzx0PkrP5+fDRmfpaC4FYeqDC3an8ZsJcq21mpluFqma1G3REfoBK/ZzGh77nBrIrmbzSX15axoZdA/EdqoaKSKoovhWS3YTj8WgIACeJ/pc1urNwLlFFVXVxzdxMqOKnK9My4xajZsERcxdGUo2Xm7WZ5x+hj49HDWrapW3YC13b6xcdNCnMFwaU8UGFuNn+lByAMka6BGXjGmQ1gD17+yYxbz6F+qwV3w6SuBzdLKWQ9NI6olm1N0Prfr78NWCEey526MFaDRwnTrC4yP6IfvVIJBw2afjC72sR8TGX0kS6/lliYKwgu4sELcy38J0vGab/AV0uzHwgELVmybqIOhM32F0KhrIw5qgf3SZssFVRmbxr90LPxZafAqKMfLDIZ+QrToY1mrFoAsR/I9ACuNPFchZF5A+W5+2j0U8ug9czb2sfEkvbaekaxI9kCYa4guIiHIsw1+KMjPkBb/rWr9nlaKQQy5YMyWgOT+Mm035K1Tio0oZUGKvdmJloCL+YBpQZPf9i2rnawMS4w1tKnDtKoDtCgi1h71rpZpN7HqGJcYPzrrLYnmPEb2X4NHv8N/oejCujtnzPvVsjdx46bf0SzYpRkJoibmbXeR70s5GkL0jiyk0/7SyTMFQSXIsLc7cpyiA4lyelS3f4nCIKrkV8wbkeWQ3QoA8wpHvY97L4IgrAtkMxaEATBBUhmLQiC4AIkWAuCILgACdaCIAguQIK1IAiCC5BgLQiC4AIkWAuCILgACdaCIAguQIK1IAiCC5BgLQiC4AIkWAuCILiA0gXrbEXXhjRT2UqvjfXhwYl5hS3ByeAeGTdluNlSZkM2YFWv2f/0x/Zmz7Nsw6ZdyzuGtPHpNC8V6sw/bh31dZn2cvq5nnUs28zeB9v3LzJeOoGz8FAoeWZtPLB/fkRhrrd/nbZwzb2XDGRce+vCJq0Vdi4Ko2oeAYUuFU7GJvErg8zHdHFxZBxPGxaZ8yIztNsCtn9Kn6cOEm/LE9gUhXiOjUd7jrYjkXE8SpLT1udrd9eiBV1dvGE+dxtarAHVfC57lgjY3K9FZqoHTHGwbR9ii7bndy9cC9KoJDgnAgbXsmVlEE1oqhK/ZxfA2o7utkxnnIXszHpT0toVihXsCjudFabPB7NkzlDXrTIam8hNKCoO06wkiDslGtWdnCZrnUiQ2aOD+B23m2BUzX3MbSo0QcA/mXOgmR9xCqiGASd3/NYd8WUEFHmJMhsb5OxQE6xXcSdsG7YsWGvmF4WqPWW0BjIZSyNBWsaiZnDNqLOyB3SUYWUA9Pnaw/szgX6uulPLOBSY6w2yUN9lqsH8U4tc9MK0v52Anp1sLNMXHhqGVMH40w/EGpokIsf2npcl4qqDA5MyqqodPJ7LN5hFs/jkEEuw70glPZeM7HqF6fNw2utgUC/Qzt2E6mj1Kd9f6RB8V7h+FZoP5ZpuFq4Fbe2YggtruSYSJn70MOUVh2lmY4o74eHz+6VucK5XwdOr/e+fWjQVTAtjVjFsJpg7DUDA1FRhaU+T1mpfCpu01ukMdFkX7KrteCzbjd8DCkh9hW2Cf1IvF+hExvFcM14ojKp2vVcpssVAW4025pRB5guV4up9jJ4PskAtdcs3mK1u4iIwW4I+2DtkjN2s/VUHaKgeALTvmDU7z34NsHAtQfNx7Xv23FF47eYKraI4cx1bVrM2a4mGwZtJrY6oL2d6B9fR3oaktWsIdoVHgb1UOZY1VojHFKr2aK+0eq/KKANcKHiRuoznjmrlioVLYZqP5/FeVlRSpSa56zBrX6VzWSP1SSKjpTPPCrFk8mRq1lM+AufXuBi/HOJcIHMm0tCrWtyigpvY+lv39It+/iO1Nkmt5li0imyz2Ky0tijBrvBoUEbrqUp6FPtFw4UxhZ7qziwBr+bBJN8FRp1ybydVV/s5F8tTLgGglhMjCVpsd4lEGR6Lauv3KvY7SyLjNPRWcjor6y33TjBDe+5dKPVdzB8N2y4wZpO6GTZLiUnLRcnCByNhO7L1wVoPujmS2vouvY6s5F54BEwh7Ialtawp2BXcirVmXeSF4/ou/W6LzHrnKlV7qcWklr4psoJs7jInjkLVqcJ3LpV7J5g/GtbHcA2e6jDN3bXaNmKTYKkxe857mM/j3KzrnoS23Pp8uXeI5quZoG+tWXvG5hxr3XVHfARy7mgRtjui9RIEQXAB8gtGQRAEFyDBWhAEwQVIsBYEQXABEqwFQRBcgARrQRAEFyDBWhAEwQVIsBYEQXABEqwFQRBcgARrQRAEFyDBWhAEwQVIsBYEQXABEqwFQRBcgARrQRAEF1DyYJ1tnjb9iFnGae2Rjtl+RrtxWni0SYU68xvIsx5fap2X89xnq8sz+7GnkfGcadYxXLAtq1LMaRvZhnKn7ZtYfKHmMnaHqLNxXXhkSJeMVPryKwfSTz09lo6Y026lL8+k0umPxtJPPX0g/fpH2tTIWWM5fZ1XZtKfla4jguu5lX796QNp39mxtO/sLcclImcPpH0zKe3FR2MFxtCt9OtPn0xf/jR7PX3snR1Lv25Z97OZk+mnjG1+OpP22cZzFpbtRmbsbZh9s/DZzEnzO5C7P059tLBWX4QdT+ky60iQHpUsg3Sto+ttX6UC5LFHCwK19MUWuXjcU2AZw9+pG8SH8kgAlhPElYzNpe74ICSW0IwwiyS7m2yL20S2FV5O+wuP08ajhykH6ryZ7Zfvd5DnEuXC1SZOOGrlosySMdbUHR90tpD7mxzFBMKjQcmC9cK1IJrNfO1lNf9iJVU2Aeg6rB/CI0qmLDB7xBDILhGnkni/US7IMg5VVFKlZozeqZth5mKJvAaYfZWKxaISZTaQaz83yyTXmriYk4xoB49sO0sqNAH5rDIW3Z3ZZ3M9vbzTD2cdrTbCo0KJa9aWAOyAoRxqCSiMqpYM3BCAxhYdBr8gGGgZdzK2SPM1y4FdDcIp3TE4BS226x619E1Vmhqw1xKVNFZX5lVxlXuHGI21mwou/LkJSF23vq0j4awa9ArTfoX4qYksr2OUC72VNG9A1lzundC2NQSv5ajvhEeJkgVrrbQRZLbARRDNHq1bygsEdUFYi7ojPuYSS/orXyYQ6s5PG/Vdpiz24hHAsIc7opdHYoskYz6qYgUSkPom/Ka9PMpwdT8MLdKXHZQjYQLWEob1wuNY1JZJa/OzMm3QBdBSOnyUKVmwLvd26mJcy9F/OcSwlDWELWDhWpDGyr1ALc1+S5IQCROv3Kvd5ZFzZ1GU4bbcEkU+UqF+eqqbqGOFaX+urJZImIDiYR8rTPvDNOdJQhauBTN1cIAKLxcN23h3LbCXqtiE2f7CpQHQa+EmyzeYVQufuQo7m98vXVO19MVUqvwKLdVBc2rjiFq6TQiPMFqJoccYTv5JknrJrK57ktnqGjygldQCZWA5w1sYq6EloK82tVj4rG45RIcywJzZVi2QSThSoU4aeo1O+JiJeSknSlwN0mMZ99q6XspZIR5TqDpeaN/KaB1qokOpoce6b5FxPG1Gmwqj6oRcYHyEEbu5IAiCC5BfMAqCILgACdaCIAguQIK1IAiCC5BgLQiC4AIkWAuCILgACdaCIAguQIK1IAiCC5BgLQiC4AIkWAuCILgACdaCIAguQIK1IAiCC5BgLQiC4AJKF6yd5KBZj6jMlumKHFdwxipStjyaNEu8bBfI2uWydmuMk4w2S9acI7LNL6t1Fupa21tLEqAtKwJcYV2UzOb46Uza93SWxNSU5GoC1GyZ7ut5ZKjCI85HM6Y8Nv3pTNpnCG0/GssrnM1tY8wci84y2lT68tkiRc1WWe1HYxmhbjqVvvyKNt0qw7VJdx369dTTJ9Ovn80vzxUEJ7auDLLHQyMQ/2SFVGiCAFkqL2rpE6ec4ES9N/PM6WyLSlGsMH0eTnvLKFpGuxaG6WWPh0arw7Fakw9cT2RkuOXeTvyBsHN2Xd9FMjbBCSenriAUYMuCdepmmDkUmg/B9atZglxBKJJUaIK4bk1JfZIwPZ65ZQsLkSCzR31acM0ro10iHsiImp1KEo6y2govF08l9fX64biXcpaIx6xr7qVK2dx+C0I2JQ/Wc70KnuoaGq42MW/VHCke9kFW3VEEoEJ+UqFOGhKdpkTZlMfGFpk/GqbB8ZqHs108l4x8NxmbhLZcbZejrDYyjudak75eJ3FFxrDwYCh5sG4cUUmqgzSqAzT4Q6Qoo6oaUMNcX8aUl87kWE0FIcPCWA2vMaQ7CnMpP9REo9OM5RvM0sRz+cooTjJaamkuNB4tslq7T9HwP+7VxrjJEnEV1nfRURAKszVlkAovZ0cUUAd4LbRC3fFBGlHp6S9w6ioIOqlQJ7NHFs2M2omFSwO6pTzKsCUQpm6Gs2SzxchoQ5wLaGW6VKiTjmzJs0VWu69SIXDNyOijzAYUqvaUUcUAFyJG/yd0m7nVlN4l/kRhU5RQmGun3NuJv1cl0NvPtDrBxVglw9XtNFQPZBYySiOCYOFuQiXQW0PAnKLJYqsuZcS3GWHuUs66VUesQT6PjNYqxrXIaM1kIp+s1jvEqF/Bo2fSjSMqfRVAjrRXLp4LpUWEuYIgCC5AfsEoCILgAiRYC4IguAAJ1oIgCC5AgrUgCIILkGAtCILgAiRYC4IguAAJ1oIgCC5AgrUgCIILkGAtCILgAiRYC4IguAAJ1oIgCC5AgrUgCIIL2FphbiGbR9Z6G5aH6uvnPNYyH6b8wPp8YV2OWgKBr2EX2VoZqv6c5J0qHLaNJasUYI3nQ0fG9XGwEUHuCtN+rU1nIa7FHGOdbu2rpU2bHDqfJMFJCrzmM7Cd1iskC16rXaf3StiWlMzmmC3MdZTkOmAT65Ziu2ugb+8pp766RuDrtv5ugo/G0k/pwtzCUtpU+vIrmhh3Q4JcQ4T76Uz6sjkWb6VfN8bvpzNpn7E9i0A3MpNp87OZkw7jMJW+/IrD+M4jBV5TvJtPJpy1L9n9yNeu83slbEe2sAxSS9+UDwgyGyFL56VnwpZnBgfaLNOyl8vGms2YzyTWsGY/hewcjYrCXG9/jsopJwMz27BnL1pmZV+2I7Riy6yN/zv8mT51jI1n+j6WeYj9cM4+69P8nVmZW5Th6nbtWc+BdjMbsmVyO8xK0nj0MOVrSWmXbzBb3UlrxcYEuQvXEower4UKL631xtSMSzF1M0nz8YyH8bRfG9d1Xq8pMijfn8+C66O5PmuSoxQ43z5GGTay6DVlwnZZsLZe/nZLIhMWHghbW7O2GM4NnZeh9Jrr7Wd6TxfJKR8A/indDOK0nC2grjDdP8AcPmZii+b6AETGaeiFUVXz6vkJ0pKnVFB1aohRxcleY7F7qIM06m0sjLXrhnZtXl/9CtN+hR5V70esgNnk6JDeFszFPJw1tGaBMAusMO1vJ+Cf1NyCI1kHEbWS0/p01AEuRGrpi03iB+1B+gEvhDppCWjvYTKmMqoEaXH5Ka158LnWpL+vhaW0qZthqo7UblCQG2U2ZlGBGUSC9FRrVvO7iYRt1r7KbCNulvvRTCj6YaiwJSYjBS60j7nCaatM2NpnUxZsrpen3bzvlbAdebAXGPUB3BLYxHLLN5hVAb/2JTIOCKD58UClR6nBY2SfsUSeoFVG6ymfrh5L5MxdGLNn7dqXU2tb+6Lrnj2jHwWo2l+W+SJUV1Jutpcg/ht9fwLtmmi4VwVU4vf0lXWbTv6sbUW3xxvZWxnPHVUyzkuXUtetHzCPhIuopUa5cDWTOTqTX5CbCk3AKW9W0BvHc97DfB4HpB3twB0/ZRFEV3i5GFskGRuC/vzXMLKlwPn7bg/4zutly4Jz1xPcy9YG63tJ5tCClRb8wjSrepaYh2KXa6zcm2dOJvtNxhZJBrK+hFbqu/TsfSCjkDIOFEzq2blGuXfCzOIDbTV4/mTOQby6CfTM2vjrKxh4HiHqm/CrSe6ST0oLRMKZDHPdgtwVrl+ttJUpUqFOzWBuGTv7Ku0Hy7sJY+NRhqv7YSjfZ6YdPOOf5JbzcqXABfax4HrGvmbJgk3ytFvUeyVsF7YuWC+H6GgLgjLIifoV7TRM0QZSZqBnU8RyFYdpVmBOr62lbobN7LfuiA9Qmb25YvZheo27Muq6MwEZMA8wfqdT6vquTAD/O7U0K+iljE1QfjinnYXQekoYeiaNZt82M23F6UvrQiJhAoqHfeST0lprtLBeQW5O2SAy7hgIy/dDz6WoZX0fzfUrTPvDNMcsGXUO2udRtd+eOTtLgfPtY0YKXEgmnCsLNtbL124R75WwbSi5MHeuV8HTq7/wT5qD/rmjCvQO0FA9QKNiyZjrfYwqQXraaoiPqJzNt5xJGa1Dg8wqA3b5LkB9F/MjCRosffBPedfosXYhNGDIUeub8BMk0FZDQFEyJZYxa1nGx0x3I3VMEq9up6VaW7dxROXs2m9R7v4E7O2gDDJfsNu1nBhRCPS244kNMh+YYCZRQ4shhcXHTKzAGcU2JxXq1MtBYN2Xcicp7XKI2eomLpprr0+Qu3AtQfPxTOBLfZKwj2G0awF99V3MXKvRRbnG+lFm1SA9xudm9quSC0YZDm1cXMzKuvNJgVsdxbvRtdercJIFZ6jLI/R1fK+EbYkIcwVXszDWSfx4ocy2AMshOi5VcrGourQgPFwkWAuCILgA+bm5IAiCC5BgLQiC4AIkWAuCILgACdaCIAguQIK1IAiCC5BgLQiC4AIkWAuCILgACdaCIAguQIK1IAiCC3BxsC6diksQBGG749qfmy+M6Y8xlec6CILwCODSzHqFfccXXRSo5SxAEITNUfJgbXcBrsM6XoylXPczDkfKKK+wbm8N56C+XtF9yUuWRbpIddbCmK7tcjy46B5Hl2u4toJUqNN+gMtjEjeJjFumOzkzBcG9lDBYa0GnJZBxEiZjkzSXbgMbR/c6FlYnrYXuSlQGmTcckUeLW89dZwHbAS3QvpaoNJ8nDrBwE87q7/380TCv2Q6+K0xfS1iWt2i81EHibTtLIiw8epQuWEeC9Kjgn7I632pp9ZblN5YXsJSvH8M03kmHaRzXv6DZmbWtPxkDR2Zap4P1PFexZJit7WcTxrpG6WOJ8gps1nO7FV2hx9qu9T15ZDNCLdBePO6xTS1kEk+F+okf6cwvfC3ClSkI25mSBWtNVqtQtcdhpqOxvIClfJM0DxntBTmXXfqIjONpC9I4oup96qIuMk5Dr2pOm/Gr9CjZmZju7VM1Q7a1pGLKXWOT+HEypttJhfr1A9uizfMIUYaVATD7AQHJCB3IEsNGxmlIdOY4EM0DcD+clTMbweWUuGate+2cyDaWp/JbykvShzztpT5JAIrFAJ050BjTNJdjkNmsrLauO3NQmetVbHVTLTC0s5a4PddGvpcqw14WCRMw2jbfK8OtKGhkmcSXQ3TksZCXeye0g+gQvLbWdQ1B2OaULFjvq1RwCnBQ2Fie31JeDIZg18O+ItfIL+stEv0sYcYPqGGuL2vljoarTczHVEbzC9ntFOhzJutfJFlQxvqokWsSX7g0wJx+tuOpbiegDtCQffGx4jDNihz0BHdTsmBd7u3ET9Zp+3KI4VDM2Vhent9SnrnrI2sj9U3aNq4ZlmktO29ch5E5x4BumRa/p73WMm0j8zWIMpxz610lVWgGdK0PuXVtYglSWA8Suo1cDXN9ObMP1v0z3hNYYTokt/tpOJvEMyUovaSkDDIfyJIFL99gVi1w1icILqCEdvNa+mIqVX4lY+lGyxJPOBrLC1jKC21DHSSutOMx6g2mkbnI2/JyDOg+ZmL6tDbDGq0wqnblXpAKWLaLfjG1YoVmBXp6FTy9Co1mZm0YyK37rUXlcu8Qo1cVekwbefb+Wd4T/yStxe3ZDmeJuKNJPI/FXb82oS9o2swFwa249heMgiAIjxIu/QWjIAjCo4UEa0EQBBcgwVoQBMEFSLAWBEFwARKsBUEQXIAEa0EQBBcgwVoQBMEFSLAWBEFwARKsBUEQXIAEa0EQBBcgwVoQBMEFSLAWBEFwASUK1lZNlf3PUUtVpMA2o9py0mwJOxfreMr+7LV5tnGVR6RrVbUVI0teGLMvZ9W1advLEiZb1XFryXwFYbOkS0zk7IH0U0+PpSOFFvpoLP3U0wfSvplUgYVupV9/+kD6qbO3StxDYdvz0Uz68qf6/5/OpH2vzKQ/S6f1cXMy/frZk+nXPzIWvpV+/emT5vKRs/q4+mgs/ZSxXtYyjnw6k379lZPmmPxs5mRm7H06k/Y5jemPxvTlU+nLr1jaN6cLQunY+jJIEQJYu6x2nAWiDBuKrED7GlLbAqJcx7aFbU+9NyMYqKjMSHDru0jGJjhhdeUuJ4jrYguAuuODkFgi9UnCIqWo5cQIplwilxWm+5M0n8o0fDeh4j+iq8IqvJz2Z5tmVpg+D6e9ZUAZVdWqrf2q/WUIQinZ4mBdhAA2Mk5DL4yqhjw2SMsY9BkiWf9k0VLbHFGuY9tiXnETqdAE8UImoIpKqgzrDrpxKJaA/ZU24871qyrxT5xLIQtjCvFTdtnEvkolYyQiymzAHoyJBJk96jPXqetWqTqvJwXXmnLkvYKwWbY2WOcTwP5VZhFNoaXSo9RkhLO6CsvK2lLbXFFusW0L25NUqJOGRCcXvYWy1Fr6pir1z7iG1xKVNFZXUl7fxUy14WbsJ16tOGa7qVAn5yrVnOBa7h1iNNaun5GFwa9QtceYm2VXZ4Vpv+aGTMYWma+cKKpGLgjroYRar/w0jqj2L1xkPEtnpWmX7GLYUmXATm0L252FsRrOVaoku4soJ9R3kYx1af9Hxun4RJMw13Uvkuw22uskvgeb7qtx5DxVvSpzGIo3gCAdaOO1NbCoK9VWmPYHMw7H5RvM0sTZPK/LDzVB/w1S3jzKMUHYAFubWRchgM0R2C6HmHaoaxcntXVeZ622he1FKtTJ7JHFNTJqJ6IMt1kzXp3IOC0xva6t2+mTsUUueg/TF7MId6d8uYkFkAr101PdZJY8UjfDYC3NOJViqislUAslZYsz6zwC2P2WRXIEtuCf8uY2VZ9PartCPN/mi21b2FbcTagEeo3PGdY6O1oYM0ps4J9a1JezXKTGx0xsnVnucogOZYA50MW8tbb+VR2xBnStFOMxBcg+ZmK1CEIpEWGuIAiCC5BfMAqCILgACdaCIAguQIK1IAiCC5BgLQiC4AIkWAuCILgACdaCIAguQIK1IAiCC5BgLQiC4AIkWAuCILgACdaCIAguQIK1IAiCC5BgLQiC4AJKHqytktHColJDx7WGaqtIua6ww1gO0eEPkVqPPDcynjVOrIJbyzhbQ267KXFuDnn6YM6z71PutgpPFx4dShistS9OS8DHjPmM4EmaS7cB4RFi4VKY5iEv5ZEbpoElqTYx268H18i4aYAxqe/idKLf4uZshynd3jKS0JVuUYaVMM2qNn2meoDXrAF+OcRsLNNmKtRJC5P69geJt42zQK3Dc7B9Ni2YuR9jmT4kVQ/ndK2c5gYNo7nrMtuOH8l8dzAUeJHxTB9iKlXnxSX6KFK6YB0J0qOCf8rqsqulVX+Quy3jzslm9OzJb/0iOmTTWfJdj23g58u+BPcRZZZO7bnU65HnAnXHm4jfXAGWiKsZOUW5txN/LEEqj2BXY7Pi3Fz2VSo292NV5V69PxMkY132ZKbCS6sp09hLlXHM2OOh0aqjq/awz3Frwk6mZMHacCRmPHUZUqHOTMatDtKoDvBa6K/Xv5EKLxdjRqakQKDddkqoyXRF4eV6ImHielCzsqY8F6CiEq7eIMVeqhSLozMSJqAmuZtHsJuiNOLcbMq9E5xOaA5STz+cKNZ+Ewlm7DQVXi6eSpo+SY6LLuxRpMQ168qMp85EM0tDkJbqGjy6fWMu8Z82uA2tBtjQq+bMcRKiCu4k+7MsTp4LsJeqaoAyWocGibcZxnHwKx725RHsUhJxbi4LYzXMGqWNU0kaxopwi0bG8Zz3MN9dm3l9rUkvg3QSV6QM8ihSsmC9r1LBbhvPxlrLXiTZ/cy6t6GVO/Qa4JRvM90VXMTCWA2vMUSye52qLMuZWPK4h7jhRbR6GI8Alb/jQq/KXK+eAbcFmetV9DKcJs7VlvdRFavMEec+ZyYo1ouh4ywQZTZg8YTWN+EPhAsG2lSoUwvMgUz2vHAtmCnFUEuzv9D3TNiplCxYl3s78QOBNvtV9+EQPHc0K5BHQs51ZTXJXSD1ScJxG3cTKoYkN98yws7AqPOuX567RDyWPW2F6f4Bqo5kB3tDsFsica4tsHdR51SKUQrUmyPjjgel3FKMc7lR2NmUsAxSS19MZVTRyx16ySOOVreb8UPAOCVtC2etW0brKR9GqeS1q85b0GzlhZcRdgD1TVTpF/3uJtTMuCnmAvJywgygmQvPCrNHMyWOzMXudpha4xqH5aJ2w9WmTGlC71vh0ltWKaYtwehQ/npz6pNEJru33KZnL8W0Ex8ZkusyjyAiHmoYyQAAIABJREFUzBW2JQtj49DdlffCXf71Ookfl4vMws5DfsEobEvqjns45/CDlYJExmkxbvkThB2GZNaCIAguQDJrQRAEFyDBWhAEwQVIsBYEQXABEqwFQRBcgARrQRAEFyDBWhAEwQVIsBYEQXABEqwFQRBcgARrQRAEFyDBWhAEwQVIsBYEQXABpQvW2X7EkliYdTO0P0TK9r+wo1kO0ZFtVImMm85Nm89TH2epUKc23nR/p6N5PHueZRt2j6d17GaZzM3xl2+6c3s5PlGn/jiO7WyTuv6I2OUQHXkeF7swZt83Q4qQ3YeFMWP9KMNrfa/y+E9z+5dtkS+2j8JalDyz1jyI2gPYsxVJ60e3SAfEOSdYURhVF53HmWmBmcSvDDJviAAi43jasNmKZmi3BQy/aSE3LObG5ox2Fpk/Gs6ouSzTrZb0VKhTe/a1uS2V5quKLVgujNVYVF363xC8Zg1uyyE6qieosuyr1TFapcDszeyDQJTZQNak5RvMokBvcGM6sMg4HiXJaZvpqRYtUFvs7bFFklPQYgnYRfdRWJMtL4MYGUaHP5NpdIyNZ47SjtmS5Ygv2bSwaVaYPh/EP2V/PnZdt8pobCI386s4TLOSbTHXKD/URKPDFuqO+JhLLAFRLvSSJRkoozUwSZURLCPjtDBJsrs2M+79nQzfPMxFtYnZS/p34tIAVYXkCEc7ab5qD8Cp0ASMDNr6mLoZpurUBKc3pAPTPJOjau6zxVOhCQL+yZyD5fxIgnPGganIPgprU/JgnTFdZJ3+HB3SzObAXMzD2dgiM35Ad9LVdS9mMiJUevolQD/SBNrtJYK2oGWmagpv1zTHALBEXLW4EE3KqKrOspWDg1sxw8KlAXAwr5uexOUEccVp3b1U6QeAhWsJRo/XQmScc5WqnrED+8u0A0UsnOtvdCCegOeOWgIjUS5cbeLEIetSK1y/WklzvXZAyejBiqTAe3E3oVrckBnK91fqB65i+ygUwxaWQewZQdX+MqiopApAF5dqkt1MBmMIceUMScA/aS8R2ATJ1jJI6awwpj6sH85aS2/qAA36QaOFyYyb0TJ99sh6yn6adHfhWsaMXr6/svAqlvq29VpQubeTqqs3tMQmEiZuc0KiBVvDG1mEsHcrWLOPQlFsk7tBtHKHVudTGVUedn+EnUUmq7WzQjyWkc9qNWuVUQa4YC0XWGrTNpmtMX3KR+C8fiZYUUmVLn62s0RcNczoWl/2VaJn9VqZBrAE16w+67X4GX92u7U0Vw9wIbLC9Hk4nSX5Xbg0wFwg428MsM5SSN790ZItQ2xsJfVJgkbb2UfhPgrFsT2CdSpBHGg8ephyloirD7tDws6ijNZTlfQo47ascmFMoac6WwOm1ZdpGy8+A63vYv5oWL/AWMuJkQQttussK0z724mP+KgD6o5UMntzhfJDTbpMtx9O6WJdJcnp7tq8fXai7vgg8fP9mQzaRCulWC+qJtVB4ueLKDGad9847U+U4bGoljH3Kva7viLjNPRW5gTk/H0UiuX3S93gXK+Cp1f7v3FE5WwxK5UfplmBnl4FT69Co2TWQkG0mnWP/qqocVbfRXJKKyUYNI6oJB2zvFr6psJ4/CHmA2uUJ3TKvUM0+xWG9y/S551gnk4aqgfM+f6pRS4aZZJ6H83nFTpQuRhbNJdpjXnX7DP+SZL1gPUsocLL6eow8eNZ9eNImIC/iT7rtIrDNNPP9WWvVpI0UAcs/fUxM2Xdt+z98TET6wKgLzap3QRgLKwMMh9zuHsrXx+FohEHoyA8JBbGamixXaDRgqBknoITEqwFQRBcwPaoWQuCIAgFkWAtCILgAiRYC4IguAAJ1oIgCC5AgrUgCIILkGAtCILgAiRYC4IguAAJ1oIgCC5AgrUgCIILkGAtCILgAiRYC4IguIBtI8zV9EbreCylsHMpJGfNVrxZRLqZdQvZY/KIbq2S3rzbX3sbznq6zfS9sJg3nwzXkSxBr/n9tO5vHiFw4e9yAanwWko+S5+y9yEV6lxbqhsZt78nTu3ZPs9izELbk20uzBUeWUxTjMporL3oA3/qZhgU6LlU4EueT4Bb5Padt6EFTUPTpT07uolZpfjgkLfvecS8wLpluH6L3Fb7fkYZVsI0q9nt67JqJ4GwE1l9vFDU5xVl+LxHX2+Sqt5+m3v1tUTlGp7GFaavJSzL5GmvwstF0zhU6Vpl4EMR5hoD35qFtGS5vGwZij9ESv8yZB+9c5cDspbVjrBZR/+1jtjCNqGM5446G0ly0XyDpwOdReur8glw828/zzYiQXoY5Kz1+dgVXi5OVRY+cKyz7xkxr8bmZLjkOCPrjg+CpX0Tf7HSALt9pyCRMJwynn1dy4kRw4SuHSguHvcUXD0V6id+pDPzXO687dlpdKlW7MEKc2OT+EFTIEXGaQkYmbhd5ZUKddJiGC7UQRrVAV4L/bU+V/fvBbzguFyMab9Cj5oxZFz0wrS/nQCWZQPtxZ06Cg+ZFa5fxXQVFsRUYtXSXGTwyifAzbv9PNtIfZJwDgJ7PDTGEmtnckX23RTzmn0rXoab+iSR8Uz6rRqyMNcND+rNMHN6f41Ey9MPZ7vXkAaYPkqF2aNDRXkxU58kbK/X9FBaiYzTkOi0nb0Xas9M6q41ZRyaLuPBCnPZS5UelH9zLQgo+pegjKpqY8kVrl9VgSAt1TV4lAHmgLnEf9LnGx67fMv9v5oWzJoJLN9g1jqtQjPTzBkST2H7YXoD+2GoOClu6maYKj2QFQxe+QS4RWy/6G2sk4Lt5hPzrlOGW+6dMEsgmfJPLX1TlaYt/rVEJY260NpcfgheW+t6kqUMcpb+rU2ElkN0nPcwv9YBxEJdt14GORJ2qPu7g5JrvdaHEXidyLZmrDCdIwt1WG45RIfo0d2Pf5Jkdy2pUCcNl6K0Gl9MXd6aexob5UKvSoAarB//Qndt7um7Msh8wEE9teb2C2xjfyVz15aArMB/L8lcdZO2rY323ehvZBzP+RAn9L5rMlzwWFeKdFFXxLWi8kNNNBqJaH0XSV3TRWScjk+yzjQqDtOshIkvQ10RB83yQ03Qf4OUt3CmnJ1JZ2fG+Vi4NMCcik2bFvDD/Kki2qtvwq+G83wO25uHduveHx3xgWlajjJrDjitRojVwhwJOVykybMcWtaMNcvQM2mM01E903Zr7epRotw7wQzGBb69VClBzoUy9ePp83pZIBImYF4U1LPHkYRl2RJsv9A26n2MxrJKa8shOtoSjB6vLU3fbWLeTchwyVf+iTLclsgtOS3fYFYtlFjZSd0MQzHfrT0eS3+jXOgtrtxlZsn6hUS/cTArpr1ImIDiYV9xu7Kt2MKa9Rq3E9V3MeNHr6G12zKKcu+EZV4NnrawYxPOy2l2ar9RHqmuoSOENs04nVQGmPPnOf0Vth113ZPQ1sn0svbZVpljTGH2qEpffXYtV6P8UBOUoNRlbP//fKfQNspoDag0X82Mf48yACNG/bY0fS/3DtF8VWF4UpPh2s4aKg7TTJjry863zNku6FvKP5np7TCll3yst/kpYZpV7ew1Fep0vjPHUqppuNqUudBqmZ5za26Fl7NHw/p8y7Y3Sp72zNp7dQ2eNphZ66xqm7KzHYzLITqUJKdFQio8FFb0i93aLXMP7FbW5RAdlyq5uI6abrEsjHUSP77JoCpsiJ37C8blEB3KAHMuPeURdgJltAYewm8O7iXNi5WlZYU4mdv8hAfLzs6sBUEQdgg7N7MWBEHYQUiwFgRBcAESrAVBEFyABGtBEAQXIMFaEATBBUiwFgRBcAESrAVBEFyABGtBEAQXIMFaEATBBUiwFgRBcAElD9Z2YWiRIs8NY+i7HpJoNzLuagHndiV7DJkqOEexq0GUYfkshB1MCYO1FjhbbM/YnaS5dBvYdhT7sHRhfTg9r/hEPSzchLMW04khjtUegRkGRzmFIOwMShesI0H9UZDWx5HW0przzFxrJqxLbP2dFlX8OMPmsnqmpD9b1yrddc7Y7VJcmyh3rW2Q9dxbvY/5hL+pUCcNvSqg0qMYEmCR8paaVGjClKDWeTPPIbZaRjT9VNeOTgwEoWTBekF3KjpZjTUBrvZMX02OG6TFehqrVnI6tsiMHyAIR3SpLarNTjxX3albNBTmTG29wYomxdWNGznLrLWNyDgNvWgy3pguL7AG2yzhL94J5kcUDIFvX/2KSHlLTpQLV5s4kfN40RWmzzsYTQRhB1NiB6OT+scQ2/porgdTx9Ub5vqynh0Zz5yu1Gy6VXvQrMtAILEE+7XFGnUNkZZVBYnfI6OhN6S4arvNSRe/11nUNhYSQQB6lBp6jJVjCf5K76Im/MUU/uaQR8rbc/UGKa87zRQPm1RogvjRoaz3Tnugf/zUIn3yXGXhEaJkwXpfpeFDLE7YuWXootMMUYaLXllhVLVbMFIhZ6WYsNWscP0qNA9Zs+cow9UTVKkSqIVHj5KVQcq9nVqJoM1yZ8ZyiOEQutg2QXwZzExbWb9xYi6xBBglFyNT16nIFeUuhIpXztcd8YG17LIcYtrJNZcPkfKWluUbzNqsJCtM+8M0x0QpJTyalLAMUktfTKXKr9BSHTSnNo6omtg2UUOLWWLwMRPzUs46L8AFMiUO7ULmCnFzpiYkjVe3Z7avDDLvLbLt+i7mRxI09Cp4eo1teHmuwCrl3k78ve30KDXEpxbp07ffUD2gNzBJUqS8G+NekrnqJsuBbom4GqTHMrYwrNYPoXuC8KBxh9YrMo6nLUjjiCpGckEQHknkF4yCIAguwB2ZtSAIwiOOZNaCIAguQIK1IAiCC5BgLQiC4AIkWAuCILgACdaCIAguQIK1IAiCC5BgLQiC4AIkWAuCILgACdaCIAj/f3v3G9rGmecB/Ku82zct7Nmc75pCIisqNT0wNod3KUwUjPfsF8cdSATsF6Fyp1SFlLyyY3vjV3Zsx34Vaqghc1bJC4cEiT0onH1rTJSB3K3ZyjXLYq5aSdsjyVZbmYXNm3uXuRfzRzOjkWwnY9nP+PsB01R6RnokjX/6zSN5vgJgsSYiEgCLNRGRAFqSbm7mGM7VnR/aSCevS6o+6PZPKM2cWsOeYm7PsqxkMfoGr301m/LYB5uP9zOWbWexUXYo0cF8PJ+1Hrc0oSaRKZihubt4lDUCTQ97XmkiwJb4o+9Xc/k9TPXGsVo46Ym9vp7xPaye9CRIWC1JN3d21kY3He1COCphQjXH2i93ds/2bj2h2O/UK82cgkXP7Cx+byTVWyHGzv2l0Wu/Y0uxv1eyXZFfOtJ+Y98HrfH5JYxms7V90BawbO7z9iPKanZJD3CuZDG6mHUcVdrHH+VIk86OlqSb21Wzt4yivmelhevacFXZQ9lMBjfTxfNLSCh64oyejG6OPyDNnALCyGJ0JZnvLErYGFL1/aWwhojXa59fQqIwg+3CHsqFWUQKRmdQyWJ0a8DYdg/XSwfvNz3jxr5ZUDG4nrYaidxkGYPG5QuFFf128ku4iVlrfORLj6UbZROY3UNZiaM9v4S+9QFjnnvIRKdxk40HubQg3dzOnXR+vi4tfGfR2T2bbwLmL2skCkBFkzRzAMzoE58V4VYfYgzsYkNJ4nrBLODd+GQeuOd67Xe20pA/2zNiv4wOHUD16SZyyrRjv5H70Xy/qWQxKk0jB2NOFaAHQGw+aRxJtuHKUCceG/ebU9JWPJw5/l377ckp6zE55wn0XJsB7j8HwFQkqvGts66lmx9isBR27riA9aFSAmuujhto+iZgdNbmz9RJJquTf6wjJmDi/hGzOg9BP1I77H6zizmpjOtm5ys3G6vTjxzNH4b80ptrQbq5/XBO726gbuJxBbXuGNADUgHI/d1ApWQF4eqp4+abwC42zG7oDdPMSQzt8RVkMOL6Fkc3BuU0lq19axf3JlG3BPdupwRlq7bGrR/VAe0XOpGbTB/4rZJnJRWRC236/mg1GLZ9sIF3OyUoXx5+X+zpTzrG79yfBjrPH3JrOitakm5u1x6fxcK6hAkr6dzQOwAZaSjDXVAkCTHr8jFk5DQSw11w/o68YZo5CaNnfA0b0RQeqSnHZZGoPYl+r657bY/PYkGWEI4CgARZNtbcesewPZ9CX7TLGGn/BhOsgGbIayj3AkAc16NdRmp9EvIBnXV7fAWZUlct5d5IYW+odwyZqG28vIYyg6HJhRmMREQC4F8wEhEJgMWaiEgALNZERAJgsSYiEgCLNRGRAFisiYgEwGJNRCQAFmsiIgGwWBMRCYDFmohIACzWREQCYLEmIhKAf8XaHXLqGZBryC8hHE0dLdXFiGE6SuApCYqBud4qWYzKWVRdcXZ1MWDmuEoWo4v+nwucTobvnbX9pO6NTuhe/b7kfQWRyQqVULFQMM5n3RHHqv1UpoLpGd/D6huc+nTn/iYGZ+N6oow0c3AMWEccdzpX2OAExPEvgzi6pBT+bTWFvkkVgIoJSe+U7WGkjo7bFmoaHk47bta5zet3W3TaMTBXt4sNpDwTZ3r6k8iVnnvOuz2eArbYXQeB78U6NynZiu4+Ht2aRg5JZIx4o49HV7A9L0HP1tO771oY6RpkqJi4ZRzqDaetDkLfRlfNppBQzOgkFQtSGgkmQgcUA3P1x7KJYoP0mJ2ttJ6w5Ok8IoVNNjMBcIzLICu42tGmB9wijcQBa9R6ZzFSS4PJb0IBEBu6jHboUUw6d+iuKyqMgkEZMd70bwGzDQJz487A3OIL503oQbRxR2AuYAbmjlidbEJR67atYx0hSphQSyga+5o7MNe831rT4hxvqQvMjTsDcz065cgF2xuWOo0+Y/4b/c0yJM3fQRLdsS+D9IybXbG+7FF/yKl/WKJ3FioWXGnnjh2Uzg4G5jZnrlk/SB4p75HE1ZKv7rXHV1BWZ2q5inZGOK7eQT9H0Yxs7B3QA3iN9badLXPN2uyQzG7F6LSlAVxhgnTgMDC3Rl+3d+kdw/bQpnPZ5EUZuWin0anvo1g45EToVPMxMFeXm6yFmMbm/x2D6/+KCbMASzPYjrehHSnIkyOYkLpQfKBiUAImJiWEJyXErM66G1MPklCGRxB2/XKYgaQJK3Q3iUyhdhhJwcLAXAC9A4hsPQdQf6TZHp/FoCxh7sIaMDwCBUlkCuYa9nMUowO42nzKJAAG5hIJYmdxCRg/2lcXq9kU7l1YOWCZh0TAv2AkEkTPtTCWj/Ktp0oWN9cH8AkLdSCwsyYiEgA7ayIiAbBYExEJgMWaiEgALNZERAJgsSYiEgCLNRGRAFisiYgEwGJNRCQAFmsiIgGwWBMRCcD3Yu2M23rDgFA6o+yRXe7QCv0665SpHkHNeiyWM/arFpXlCpttGCjrNQfXtoyUo1bSfFPVHn78vnbx0qKWty77VnuYqfp3F3Q2fJPRHv5g/PuHjJb8OKP9qGma9s2idvHSp9rtO59qt7/x3vTHjHldVXt4x9jO4Vvt9p1vX38OjjGLWpL7N7WIf511Po0JFZAf2E/h2I2rxnl5HR23o/NJYVRml0I2vfHauak7OhGxLh9DubCCTzobbIdd3PPrLHON5mDZx6MvYYsWIzpevhVrPclFqkvrAMyAWyM0V51BTJ3GzexfrOsHZ82w3DQSDQ9L6SyqZldQNHI4DzMWVpbhcxSVWk5hbdmkhKKVv9g8F7TpHPJpbAwlj3RuaaI34fOadSciddFaZpxSGoloF8LSNHIAcqU/ubY5j4gEoFBinhwB0N/k+0oprB6qe93FvclOI0QZALoxZWUgrgHDRmHuiGPVvFwdwIbU/GjOew77ePRlqS5xneg4+Vas3+2UAKSxkW80wuiszZ/xD/y6awqgncUu3MQsyuPdBw8GgPwmFHmgQafbjUGvKK6OyxiUavfn7rYbzqHyBBtg5ie1lm/Fuj2e0gNuh22dSiWLuSyMgFtbIc9nbYefRvBt5Qk2VDM4l86yajaFjf69Q3bUup2tNOT+BoW9ksWy4nHUl09jAnoQbs+4M4m82RyqTzcB7qfUYj4G5nZjqqAiIktIRNPWpbF5tRZwO9wFPftWwoJ62RihYsIMvjUCdelse1ZSoUya+wqg7y8rdYG4NfsoFiRErtkuqmQxaiy5mdv3ALUwXADNgpabzeFZSUWkn/sptdYJxnrt45EsYUJ1JUsTEVEd/gUjEZEAGJhLRCQAdtZERAJgsSYiEgCLNRGRAFisiYgEwGJNRCQAFmsiIgGwWBMRCYDFmohIACzWREQCYLEmIhIAizURkQBak26eX6pFKzVMoyZyqmZTzvRx+75j22cc+xxj4SigfCzWegCulbVoxCkNNhgdm1etMbI6jT6G5ZJlF3PRLtwsdSJmu3TnKXDH2Le2hzZxM7sPwB4coGKhMFLLWyQKkJalmzfWjakHSTSPBKOzRc9PXL0WdlzaE68FBbRfaBRxnrTlMBIFR0vSzQ/0ThgxAMXv9/2aDgWaK7DWWh65BcwyyIKCqQXp5kR+0hOGip/ZYr6sxPJZ4FYXl0EokFqYbt7EizJyACIXmGtHzexiLnoLmN3DlOdSRxuuDEk8QqNAakG6+QG/OJUsRofTgDSDT7jWSA3t45G8icFC8+Dcx+sq3/QpkFqSbu4lNykhPGn8j7yG8ni3f1OhAHqOoprGhG3fgjSDbaUT96IjVgp5bF7FKt/0KYCYwUhEJAD+BSMRkQBYrImIBMBiTUQkABZrIiIBsFgTEQmAxZqISAAs1kREAmCxJiISAIs1EZEAWKyJiATAYk1EJIAAF2s9ZiwsZ1GtZDF6rNl8xn0xmoyIjol/xdpI6xg96JSoDraC6nfBqzzBRnQN5c/K6JOmEek//Fn9agGsKTyq2K4wgn/dl1eztzCBGWwXPFJKHM+Lni3IgOCD7GLuNZ6jajbF4AEKLB9Pkfqm2nBV2cNVv26uI47VcQDoRrkw9po3omLj6b6VI6lHl3n4cBblA7Mm9blMFfYw9ZqzIaKz65iWQcwuOYVR2exSzY7ZvK4L4aiECdW9jdc4vTOtdbzu7tboWI2fuTwaj7Xy+mq3601CTAJy60+MDm8XGwoQkyTHqJ3FLvRJkn57Zjdovw9pGjlrtLuzds/b+ZjP5rLKLuaiI1DUafRZr5vtefJ67uQs/iebQt+kCmW4C2Fzycs6EjrqER/RKaT55YeMlrz0vpbMVDVNq2oPP35fu3jpU+3hD5qmfbOoXTSu+zHzqXbx0vva7W80TdO+1W5fel+7+HFG+9HaZlHLO/7txb6d/d9HHGvMS59LTf6Oft8PM5+6HoPzMv2xGHO0Hv93zrnbHvuR5m3c3sU73x79tRDet9pt63mpag8/tu0H3yxqyUxVy9+pf91+zHxau+yHjJa0PXf5O8brSCSoY14GMQN09fRy4C94vK4CSGKwFwDOIyJ5bfccRRWAPFC3Blw1OihLpYQigNjQZbQfNDa/CcU+tncAMtJQtnYx1Vu/ph35cAAxTGPj6T4ipTQgr+EKSsa1+8ZjUR3JOPjdfwD2ub9jPnaXJvPeWexCQvHa6AyqPMGGmkbO/hzLA1jtTyIxnEJE9Y75qj7dRE6ZRtj2PMr9ABjoTII6mW+DSGG82+x6o5A56Ye9fesD2C6oWDCLvBG2e6ixR9VxGYMSkFu/hWUFkD0/pEwiU9hD2fz5TH9ksc7zzW/ba97G8kkCaygX1iC/5rQDR5rBtv05Hu8GesesNPNGH9jG5tXaNoVGIbtEYmhxsf4prgxJgLqJxxUYXZPHMKNIQtm0he/aO1Gj8waM7ti+tnyIsaXn+v8bnbZ3EQaANlz9LAmoKnLW0UDtuitDrkT3fBaPYBZ4fT7Vp5sebyYN5m0UcLm/u8Eb1hnU0YmIOo17nt/yaMNVRcUCynjmuqb9Qidyk+kzuOZPQdXyzro9PosFScWE5P7wza4NV5U1yEgjYX5A9PQf9CI4KSEcXUHR6pa7MaXOIKZOo8/8oO7F5eZjlRH9g6fhNGLzavOOyyiqXksy7fEVZGToH2pFuxAe3tTnPlubj2MZxsFj3hgwEuK7EL61eZinM6C6MRg1P2DUn6ficKMPkCVsDCXRA6D9wwF93OIu0DuG7fmStf+czQ9rKUiCFZibX0L4yzC2lXjdOjARkciC8xeM+SWEh9NAtJOFmogCJ1idNRFRQAWnsyYiCjAWayIiAbBYExEJgMWaiEgALNZERAJgsSYiEgCLNRGRAFisiYgEwGJNRCSAABfrVgbmEhEdLwbmutmioBw/Rwhw3Vk82VDck77/N8fAXCI3Bua69Y7p4ytZjErTwLyK1UOF4Zr2USwcca6+Oun7J6LjwMDcwx4JuDpu73DbfTySjcekTqPPuswjBNe4vVE5VbtucckjGNb1WBxHIe7n1+v+9Y7T+3k7jRiYS+TJtzTHAAXm1j+e2ljPAFtHuK0xd6/52Mc5bs+Yl/F4fzx0KG/981t3/47ramHA3s/racHAXCI3BuY2Ccz14s5WPGy4baNx5u3pz4OeTdl+oRNAGsUX+4BXKG/pTxgEUP/8etzvVhqAhMEP9aWcnv4koKSxkR9DjwiZhAzMJQLAwNzXd9hwW19CcF2hvOMfvPa0hcTAXCIG5jYPzG3isOG2bxSC2yCU9whrzj39SQAqii/0/9c7bXf47ynGwFwiAAzMPTgwt5HeRuG2ZiK68QFfw3GH4x3K24z7/sewPS9Z2ycUCQvqWN3y0unCwFwit2DFejEwl4gCKjh/wcjAXCIKsGB11kREARWczpqIKMBYrImIBMBiTUQkABZrIiIBsFgTEQmAxZqISAAs1kREAmCxJiISAIs1EZEAWKyJiATAYk1EJADf083tOYWNcu/MTMCjJlE33s6ekn44+ik2edrMUy2/VPcaVbNLxvm89/FI5utHZ4fvnbWZzrE9LyE3ecvzRPnt8ZXXSu543e1ITDtbacSkEpYZdkt0fMsgeo6giuILV7q3kURt75CdSeTe6eYpmWypAAAFQUlEQVT12x2Ukl5/0nn7/bjzEOsTxOlk7WKjMIM7swOAPQUIAKwUdz2cYi4P15EdO24KnmMr1tXvSwAkRN4xL5GwoO6hrMTxN/Zx2RQSCiA/2EO5oGJBSiPhKJaNtruFCdXczp5t2IaripG7p84ghjQSi7tAfgkJxez8nbmM+hyMnEMjdeYmu7mTld9Ecegy2jsuYxBGDJzFiPOS9NdsqhdARxyrZt7iA7Abp8DxPd08NykhPKn/W36wh6sd+3gEoJbEbbfvSjs3MgcnN/G4ctkYc5jt6lPS3Wni7pTvSBSAar8td4L4cwBtR3z05JedrRIGr+nP/5Uh4ObTfVyNN389HK+5PAC+fhQkvhfr2LyK1QN+qXzjlZJeyWJUmkZOXkO5AMxFR1Cr2V6F35REpnDaswnPiEoWy4qKnNKFCfMy6Qmq8XjDTarZFJY7VZQLbfo+cL8lMyVqmRP+6p6Z3l1C0fiE//G6CkgDuNKwqNq280pJb5Amrqd8mynhu9hQXLf1Bgni5K/q003A+KDa/MlEGyWc656VVEQutFnbewcxE4nL9876qNrjK8iUupCQzC4qiUwhjnY0X3Nsj89iYV3ChGTrvgAjdTwNZbgLiiQhZl0+hoycRmK4C0rdbRlzsK6TsKA27uLoOO3j8TowOOs8OuvpTyKxtYtPOs1L2nBlqIS+aBfkB3uYujaDZakLYQAxOVl73YkCghmMREQC4F8wEhEJgMWaiEgALNZERAJgsSYiEgCLNRGRAFisiYgEwGJNRCQAFmsiIgGwWBMRCYDFmohIACzWREQCYLEmIhIAizURkQBYrImIBMBiTUQkABZrIiIBsFgTEQmAxZqISAAs1kREAvAtMPeHvwIffaXhN3/UcNpTHUMh4GcXQ/jqoxD+7u2Tng0R0cF8C8z9p7sa/rt8yqu0y8/DIfznjdBJT4OI6EC+LYP85o9iFWpAzDkT0dnkW7E+7UsfXkScMxGdTfyAkYhIACzWREQCYLEmIhIAizURkQBYrImIBNDSYr08dQ6/HXFdOHIOL6caf9d5eeoclgEAIfx2IYTPj3F+RESnlW9/wXgY178HXl4IAah9Z275AvDkv/gdOiKiZlparLGm4bu7ISxDw3UAQAh9b2m4n4PeYffVht6/8coYo4/77d0Q3gNw+24Iv/jVK/z6g3O4fcm4+s8a3prTgJFzePZTDZVLIbxnXkZEFAAtXrPWsP1noM9YCvn8eggdz4EvYiE869ML9Fs3XuGXfwCuOZZGNPzjDQ3f/Z+GX954hX/OAV8s62PfuvEK9xHC1zF95NuXQti+8YqFmogCpbWdNexLIcAvzgO7Gxo+/+Ac8AfN6qS/WNZwbQEHrE/Xum0A+O7v9f/+1XY7RERB0fpvg6xp+O5vQ1iOAd3Q8Ovc69xICF8vhFD5Va0TJyIKshP46p6+FPIvgyHgOfAFgC9+rwGXQsa3PvTlkfde6tc10vET4H9zABDCL84f+6SJiE7UiXzP+vr3wNs/AXZ/b6wr5zQs/gG4dvccXt49h9vnNfyybs1Zw/bLEG7fPYevYxruW+ND6HjZ8odARNRSvp3P+q0br/y4mZZ7eZd/F0REpx8rFRGRAFisiYgEwGJNRCQAFmsiIgGwWBMRCcC3Yh0SMCRcxDkT0dnkW7H+2UXxKp+Icyais8m3Yv3VRyH8PBwSolsNhYCfh0P46iMBJktEBB//KIaIiI4PP2AkIhIAizURkQBYrImIBMBiTUQkABZrIiIBsFgTEQmAxZqISAAs1kREAmCxJiISAIs1EZEA/h+q/WebPUDCMwAAAABJRU5ErkJggg==;" parent="1" vertex="1">
          <mxGeometry x="316.15" y="270" width="88.87" height="130" as="geometry" />
        </mxCell>
        <mxCell id="6sN9hePH6n2u5998fX2B-4" value="" style="edgeStyle=orthogonalEdgeStyle;rounded=0;orthogonalLoop=1;jettySize=auto;html=1;" parent="1" source="6sN9hePH6n2u5998fX2B-3" target="8XKfCKsSzNNgbXioAJdh-16" edge="1">
          <mxGeometry relative="1" as="geometry" />
        </mxCell>
        <mxCell id="6sN9hePH6n2u5998fX2B-3" value="" style="shape=image;verticalLabelPosition=bottom;labelBackgroundColor=default;verticalAlign=top;aspect=fixed;imageAspect=0;image=data:image/png,iVBORw0KGgoAAAANSUhEUgAAARkAAAENCAYAAAA7VxGaAAAgAElEQVR4nO3dfWyU170n8O/QSjSJ4iiV3Xg3tgJ+mawN2zp2s05aaTDXMjEqJOkOcotzgzpkEINqRG6zOEDMtpWNwePNvbXiCl8xG0dkaxbLs02AvZiMHOyRXOItM4xuwSjOzFxSO82QsVJhFBp6mzz7x/M6M894bOJnXvD3IyHhZ845z3lmPL855zzj3zH99a9/FUBEZJCvm0ymTPeBiO5iDDJEZCgGGSIyFIMMERlqRaY7QER3NwYZIjIUp0tEZCiOZIjIUAwyRGQoBhkiMhSDDBEZikGGiAzFIENEhmKQySoBdJorUWKuRInZgcFIpvtD9NVlOMjM4M0m+U1ViZKqDly4ndkeEdHSymyQ+dCLtwOan28NYHiCUYbobpLRIHPlzBvwxx170+3BXEZ6Q0RGyFyQ+eIqRodmxP+vbcBTa6XjZz0Y/XPGekVESyxjQeb2e270fiT+v/gpB1qeKpIe8eD42ZlMdYuIlliGgsxt+N91Q1x9KUKTpQJrLFYUS4/63/JiegGtRMf78aJtE6qkheOqxj3oPBPGbcxi0K4uKHf6kjQQCWDQuQebLY9JZWuxwdYK1/isbnG/M67NL27iyplu7GqslRauLdj803/GhfnuCsl1nrGgwlyJEvNjqN3aCtd7+ueMrXsb0z43Xm21YbN8TnMlKixW7HK64dc7b8SN7fLCut2NKIDbU278vEmsX/XrgE4loqWTmSAz58XJN6UF3oetqKsAUGFB08PS44E3cOrqPPW/mMG5/ZtQa+vGqfGwsoYzF/bA9bNN2OwcS7muM+3egypLM/a5PLgSkRebbyI4fgadNgs2OCcw98U8Dfz7DM61bcXmn/XjXPimeOzWLK54evBcowODH+nUuXUVv/57i1jn6qwUZG8j6juDzm0N2O4OzXPCWZz62RNYt/Ugfv3WBK7I5wRwO3IV51wHsSXZeTU+/8iNXU0H8WZArD/32fzlib6qjASZOe8ZnJL+X/xjC9YAACpQ92N5yjSDwXeTR5krLgd2ucPST/ej+tmdONLXj9/84148XXU/gq6D6PQmP3/0LQc27JcWmB+sxUv/6MbYhBfv9LehqUQsE3Q58OLp5KOLoKsDu9xRPGlvx+v9/fhV6yasuVd68JYX+5xn4gLdTZxra8arPimg3ZuPuuY2/Kq/H68f3omnK4DR/QfhSt5tfP7ZbeDBKjz903a83u/G2MQ7ON3XDnvNSvW8/zAwzyhwFqecBzF6a56TEC01Ie2iwskXKoTV5RXC6vIGofcPmocm+wRLufTYd5yC72861T89LTjkMuU/EA5dmIt9/G9zwu+6fiA9Lv47dFFb/x1hz3fkc+wUTs7Et699PLYPvq4KTbs/EA5d/Dym6ucXnGr/y/cKwzc0D/5Be207hZPX4s77t2nh5M4qTfs7hZMfxz5v50+OCZ/oPSefjQn//TtJ6n08JNiU81YJ/6n8vwiO30wKN/TaITJA+kcyH76DQXmUIU+VZNop060BvP1e4ndmou+ewTnp/yufP4iXnrg/tsDX7seTew7i+XsTqkr13TglfZKv2dOqnk/2YAN+9CO1D+f/oN/OyucP4iV5BCEfe8IKu3yXDB5cDquP+f+lTxlhVLe2oemRuAa/VoSm/XtRrX86APmoa7Kg4Gs6D91bi/XPyj94EUw2Zbp1G8UvvYGjzRXI02uHyABpDzJXhtXvxhRvsWBNzC+7dsp0G296JhAbZm7jyh/UedDzDbWIfZtLVpZizXf1HtDWL0LjEyW6fSwzW9TyIf0p01PfrdQ5dwG+tUo9121lTSeMK0rArEXTuqKEmgCARyrnCTKSL24jGg7gwpkBvNrTjRdtVmy2PIHtA6kqAoAF9mcqUhcjWkJfT+vZvriK0f8t354uQtO6xF/4NRYril/tET/1B9w4t8eCpx+UH72JT5S727UoK06onoK2/gxefaYSry62Ccm3vnW/ztH7UVCoV3oO05fl/1eiWLdMatNnOvAP7QPw3/H3iEpRdofnJrpT6Q0ygTPKd2OAGbz6X1O9yT04O34TT2/Se0OvBHJ0yL/yDvodfcuBDa1ecWR3bz7qnnXg2YZSlBZVorjgfgR7K7FlvlVjALCUYNFxmegrSmOQuY0L/zKAxf5l0rnjpzG9qVnnzTGB6QgA3U/mz4G/6rf3DeWKq3Dg//xz4ppMvHv1AtxXEcJMFKgu0Hnoi2TPzlUM9kgBBhYc+b99Cf2+Pd/tdqIMSl+QuT2BYfm7MViJ6qaf4Em9NxoAzF3FqTelL+QFzmD0w2Y8/wgA5KPsP68EvLcB3Map8at4qUpnjSEygeH39BrOR+ljRcC7MwAC8F0D7GuXOojoKcLavwPwLgB4cXYiyejsakBZ1I4RmYRPHgGutaA6ITCGEfz90vWWaCmlLcjMedx4U/7hYQd++cudcYu+WmF865IXP78MAAEMesN4/nlxkXbNd61YCXFENN3TA1dDD+xmzRLsFzMY/EUHRpO0vGb9VpS92o0ggHOv9mC0tg11yYLdksnHY5Yq4F3x27XnXu3DBctePJmnKXIrgM7/1pP6m86Xr2LmFlCmuXs27Xai83LyKkSZlKa7Szcx6vEoPxX/OP6uUrwS1G2pUn668roHV6TpwMonmnFAeciLzk0WPPeLAZwan8CpgQ5sX78Z+957GGXJpkHmZhyxS3eVPhrA9gYLtjvdGB2fwAX535kBdLY248W3FvBV/wUqftah3lb/qB/PNTTjRdcZXJD6/dz6ZrjyqvTvLhVWoka5Hjd2vdCNwXcncGHci0GnDZv3z6BY/0YZUcalZyTz4WkcPyv/UAF7Q+rbqMUbm/HUL6Tpw0dujF7diTVrAXytBM//Uw+uvLAHg2EAuIkLAx24IN/CvbcCP/2f3Sg+ugn7PgKAIjwQ852Zlah+qQ+/+siKF8/eBG7NYtR1EKM6i6Z1tXd4vXruteDA/9qDK3/fA/8tAH8O4JQzoHzzGQ824Ff/1IzL620J6S+ACtj/hw1vb+1HEMBtXz/2+fqV66k7fBo7QhvwXDihIlHGpWUkMz1+Rn3jVFlRt5BP3QfX4dlN8g8z6P2t5jszDzfgyOAZvL6nAWsKpanSgyV48tm9+M2wGy/VaOchJSh4ELG+VoSneyYwcaId9oYKFGiC0MrCCqxpaMYv/9GNrmfzF3WdqaxcuxNDw/048Gwtyh5Uz/eU3YnTnh48/bDut37EcjV7MfR2O57/fgnEq1uJgppNONDvwevWIv3vCxFlAZMgCEKmO7Hkvgigs6YZrlsAsAlHLzrxVF6qSkRkhLsykfjtgAfn5D8CrKpCJQMMUcbkYJCZxSnnPDlbPjyDn7/Sr9ylqfvRBn4BjSiD0vuN3yXy+VQPnrP0oeDvrGjZ1CCub/w5hPPeMxh8K6CmWCjZg5eWeF2FiBYnB9dkZjFot2DfPPliACDv+3vxm1/b1BwvRJQRORhkAPw5jNGzAzg5dAn+8FVEpfWXvJIKrPm2Bc/86Dk01XAEQ5QNcjPIEFHOyMGFXyLKJQwyRGQoBhkiMhSDDBEZikGGiAzFIENEhmKQISJDMcgQkaEYZIjIUGn5A8n3Jv5fOk5DRFmIf1ZARIbidImIDMUgQ0SGYpAhIkMxyBCRoRhkiMhQDDJEZCgGGSIyFIMMERmKQYaIDMUgQ0SGYpAhIkMxyBCRoRhkiMhQaQoyAXSaK1Gi+bfdPZuiziwG7d3wL/ZUvm6UmO+g3qLdYf8ydU5fN0rsbkSXuktEKaRvJGNpx8TUJMJTkwhPedF41oISZ2DJT+Mf6UedJYTelEFsuZjFoL0SJSOAPdNdoWUpQ9OlfDS5BmB39WEwAkTdDnWU4wxAfGNYsM/bjy3mSnT69MroCWB4qh1dHQ3A2bGYT22/Ux5FOdDpdKDTJz3g604YXfmdDgy61eNKWe2IzN6PIHSOmx0YjADyqGNQ7rczAETc2B5TRi4n15VGKRE3tjvd6nG7G1Gd5wSIe150Ryr5aHJNItzasOhXiWhJCGlxSTj0wpDwSdxRX9dO4eTHyY5FhZMvOAWfTmt69QRBEISLTsE2FJXqaspcdAqrlfNHhZMvVAiHLgqC8PGQYOu6lNCur6tCWC0f/3hIsEl1fV0VUvvS8XKd/iltiueRy/u6KtQ+XHQq7cdci1z34yHBVq4e93VJ/Y1/TmKuK65/CfRfAyKjpSX9ZmoBdJqb4ZJ+stcDKFx8Gf9ICI3b8gEA6zcCL4/PosmaD/9IP+y7JlEAAMjH+o0WBAFExz0YdR1EiUttw14PlMGCI9uqxAOF69BoHgMQwLDLhpapfPW4JazUi7odqN3vFX+wtCOKIgA2tFjF8sWlFtjrrWIfahpgH4HUphcuVyX2yQ1Z2sXRiN2BJun6quttGNZ51mKvC6je1g4cnwGQr1OaKDMyGGQCGHaVorF1FoP2PpR5JxEuFN+sxxLKLqBMxI1elxejMW/YMUSt1nl7UXfYi9etsW9K/8giL8XXjdqQA+GpPgABdNpDi6hsw9DUXlRrD0Xci+wAUfbK0JqMOCoJHrahGjMIektRVggAszh/1qtTPnWZ6LgHOOyVFpbFf0PmgzjmE0cRrhF5HUetX7CqFKP7+xd4t6YIZZZ+DMvrM5ExDEvdiF4Loa60SPzB54FLt37yNu90kbq63gbXUXUdxn/8ICD3gyhLpC/IeA+iVlkcbQZOTEojiCrsOBzCFnMlSsxtCJotUoV8rN8YkhY5k5WRzeL8WaDx+7Ejkup6G1wjARRYO3Bkqlk6t6Z+zV5MKO1Wprj1nY+mjnYEt0pl28Iok5opsDpQtt8iHl/UXRxxAVypm/LWvvY5Efs/ZFaf1y0YSBiVEWXaMtytYBaD9jago09Z8yAi42TJwq/BfN0o2dqv/Gg/MYkDDDBEabEMRzJElE782yUiMlRapkv//re/4Y9/+gRzNz9Lx+mIKIukZboU+uOfcN8938BD+d+EyWT02Ygom6RlujR38zMGGKJlKm1rMgwwRMsTF36JyFAMMkRkKAYZIjIUgwwRGYpBhogMlUVBJjbZuJryMjbFpPY4AClVZSB5OU16Td36vm7xL5+15bTpPXXSc8amzFRTaaZOham91mQpOFPVJcox6Ui/5788tbgK2tSW2hSZOikvldSUycpddEqpK/XIaTqjwskhbRpOOd2lNmXlJeGQnBLz4lBsykzd1KL6qTA/GdoprC53CodiUohGhZNdqVNjinUrhNXlFZprEtN8isf105USZVIWjWTi2BtQDSA6HkajkgrTiha7JnGUlDh8R02qcklExjBsdqCpMB9N1irlcHGplCjG5wF2SSkzUYUdh4Hh8VmgxqqmiSgsRZlu45aE/DYAUGDtQ3hqLxpTPgHSyEgeVUXceDnkEBNyedsR3Crmvom62xDcJSbpmjgcwhYDdoAg+iqyKsgo0402oKtVfNNPh2JTWSoBAAB8HgQ3rkPBPOWi10JwbdWfhkTHPSirr0KsAI7tL0VjjVhXq2BVqU6f+5Q+aKd8w/WLyVczg6BLTT6lndLJGff0g+gszocasKNG6p/VAbvLk+a9oIjml1VBRvyUn0S4A3g55QZtsxg8CiVRd8o2pyYxsdGDWuWTPoBjZ9U3qHys09yHMm9czt0kom4HakMOTTa6KhyQztU4spAN7GRqvfDUALBVXK8psPYpbesH0RkEp7RHi5RsfUTZIquCjKJwHRotIQQjQHFp7OhhOiQl1o2MYdjcoASDpOU0Cr7fgDr5B80oSGzPje1mDxqn1BFI/MhFO7LxOyvxMjoQbo0fCYmq620YDc2kuFA9VWjkLmx0F8nOIBMZw7CUOLxgFbDvuLou0euyobEG8B/3qNMHJC+npSbajh8FBdDZBnTF7xrwcAmCSqLuAI7tF/MIR90ODNdPzptP1z/SryYXX9S1u9HrEq896nYooyH9IFqEMrP26AyCennYiTIoe4KM9hayxYNGecpSsxdDaI47HsDwVAPWa9c8dMtpd47UJNqOGwUhEkIwJtG5dBu70IqujR7peDNwQhzlTIe86jqPchs79jb0opJ6KztLxl27hn4QzUcZxB0ZAHF9yGVvWNBUjyhd0pJP5tKVD/DYmvIlay/qduDYqj4cqEldVo/f6UBwW+4lEvc7K7HFBQAWHPHK/ddsemdpx4TLqk4BibJATgYZIsod2TNdIqK7EoMMERmKQYaIDMUgQ0SGSluQ4RZyRMtTWoJM3v334frspww0RMtQWm5hc3M3ouWLe2ETkaG48EtEhmKQISJDMcgQkaHSFGRik4THJuVOZhaD9lSJq3T4ulGSMuHVUrjD/mXgnNq/RE9IpE5ksPSNZCztmFCyv3nReNYSuyvAEvGP9KPOEkLvgrPS3eUibgTrtVn30h0YabnL0HQpH02uAdhdfRiMxG0l4gxA/MS2YJ+3H1ukT9/EMnrExOJdHQ3A2bGYfL7qp7kDnU6H7pYp8ujK73Rg0N2t8+mvGZHZ+xGEznFlqxNx1DEo99sZ0OSNSbYdihQAIm5sd7rV43Y3ojrPCbCAbVgKrWhSUmIwPSdlQHo2RdBuLaLyxWwLEn8sKpx8QX+LD716giAIwkWntA2JvNWJeny1cn5xC5GEbVQ07fq6KoTV2u1VpLox25zobM+iHO+6pJxHLu/rqlD7cNGptB9zLXLdj4cEW7l6XN2iJe45ibmu5NuwaJ+f1ZrrJUqHr2c6yIk0iZcA2OsBJCSUSl3GPxJC4zYxG936jcDL47NosubDP9IP+65JKZlTPtZvtCAIcbeCUddBlLjUNuz1QBksOKLsDLAOjeYxAAEMu2xomcpXj1vCSr2o24Ha/VLuS0s7oigCYFNSfBaXWmCvlxJK1TTAPgKpTS9crkrskxuytIujEbtDSapVXW/DsM6zFntdQPW2duD4DACdjHy+bpQcLcGESz8nMZFRMhhkAhh2laKxdRaD9j6UeScRlvLaHksou4AyETd6XV6MxrxhxxC1WuftRd1hb0KaTP/IIi/F143akAPhqT4AAXTaQymrqGwYis8tHHEvsgPzk3dVCDPAUAZkaE1GHJUED9tQjRkEpaThwCzOn9XLhJ26THTcAxz2KtufhKcmMWQW898Wl1rgGpHXcdT6BatKMbq/f4ELoUUos2g2jIuMYVjqRvRaSE0a7vPApVs/eZt3ukhdXW+D66i6DqMmStfwdc+7qwKR0dIXZGISdTcDJ+Rs/1XYcTiELeZKlJjbEDTLK5P5WL8xJC1yJisjm8X5s0jYsbG63gbXSAAF1g4cmZKSjGvr1+wVd100xy286spHU0c7gnIC8bawsohaYHWgbL9FPD4CLHxHE3EBXKmb8ta+9jkR+z9kVp9XveTl0WshjGra521sSrdl+LdLsxi0twEduZdInCgXZcnCr8F83SjZ2q/8aD8xiQMMMERpsQxHMkSUTvzbJSIyVFqmS0xaRbR8pWW6FPrjn3DfPd/AQ/nfhMlk9NmIKJukZbo0d/MzBhiiZSptazIMMETLExd+ichQDDJEZCgGGSIyFIMMERmKQYaIDJVFQSY22Xj8XwpH3Q79tJsRN7ZLx7WpKPXSa+r+BbKvW/zLZ2057Xl00nPGpsxUU2mmTIUZc63aFJzxbTIPL91F0pF+z395anEVYlJbXhIOlVcIti5nTKpMmZKaUptKU1v/olNKXalHTtMZFU4OadNwyukutWlDLwmH5JSYF4diU2bqphbVT4X5ydBOYXW5UzgUl0I0ZepMpW6FsLq8QnNNYppP8bh+ulKiTMqikUwce4OULa4KB6Ym8fq2Ep1CYuLwHTVAdDyMRiVlphUtdk2CqWQiYxg2O9BUmI8mq5rUqbhUShTj8wC7pJSZqMKOw8Dw+CxQY1XTRBSWoky3cUtCfhsAKLD2ITy1F40x/XCjd6odXfG5YLSjt4gbL4ccYkIubzuC0q4DUXcbgrvEJF0Th0PYYsAOEERfRVYFGWW60QZ0LSSTm8+D4MZ1KAAwHYpNeSkHiui1EFxb9acw0XEPyurjzxPAsf2laKwR62oVrCrV6XOf0gftlG+4fhH5aj4KA+YwXtaZrskZ9/SD6CzOhxqwQ9qNoMDqgN3l4VSLskpWBRnxU34S4Q7g5ZTrErMYPAolUXfKNqcmMbHRg1rlDRzAsbPqG1Q+1mnuQ5k3LuduEnLuXDUbnTjqCk9NonFkIRvYqUZdQIucNhTN6PSJfZfb1g+iMwhOaY9yyxPKPlkVZBSF69BoCSEYmadMZAzD5gYlGBSXxo4ypkOJeYALvt+AOvkHzShIbM+N7WYPGqfUEUj8yEU7svE7K+fNnVtdb8NoaGaeC4hjV6+lut628HpEWS47g0xkDMNK4nB9/uMedfoAoGAVsO+4un7R67KhsSa+jpxoO34UFEBnG9AVv2vAwyUIKom6Azi2X8wjHHU7MFw/mZBPN+ZcI/1qcvFUahpipjn+kRDKHhZHSvJoSD+IFqHMrD06g6BeHnaiDMqeIKO9hWzxoHHeKUsAw1MNWK8NQjV7MYTmhPrafaCVRNtxoyBEQgjGJDqX1kUKreja6JGONwMnxFHOdMirrvMot7G1t6D1k3onV4UDJ6AkNO8t7UhYz9EPovkog7gjAyCuD7k0IyKibJCWfDKXrnyAx9aUL1l7UbcDx1b14UBN6rJ6/E4HgttyL5G431mJLS4AsOCIV+6/ZtM7SzsmXFZ1CkiUBXIyyBBR7sie6RIR3ZUYZIjIUAwyRGQoBhkiMlTaggy3kCNantISZPLuvw/XZz9loCFahtJyC5ubuxEtX9wLm4gMxYVfIjIUgwwRGYpBhogMlaYgE5skPDYpdzKzGLTfQUJtX3eaEnHfYf/Sfs75E7QTGS19IxlLOyakzG/hKS8az1r0dx/4ivwj/aizhNC7iKx0dzc1W582NzBRumRoupSPJtcA7K4+DEbithJxBiB+Yluwz9uPLdKnb2IZPWJi8a6OBuDsWEw+XzWvjAOdTofuliny6MrvdGDQ3a3z6a8ZFdj7EYTOcWWrE3HUMSj32xmQsu/FbqOiuxVKxI3tTrd63O5GVOc5ARazDYuE+WYo3dKzKYJ2axGVL25bkNhjUeHkC/pbfOjVEwRBEC46pW1F5K1O1OOrlfOLW4gkbKOiadfXVSGs1m6vItWN2bYkZtsWDaVN8TxyeV9XhdqHi06l/Zhrket+PCTYytXj6hYtcc9JzHWl2oalIqYsUbpkycKvOhLY4vIi+NGdlfGPhKRtSPKxfqO0fQnEKZRd2dokH+s3SjsZjHsw6mpWs9kp7VpwRNkZYB0azeL5h102NWVn4To0apJ2KyMKy0GMToWkEYVavrjUovahpgF2yG16sc9SmVjX7lCSaiXL+Rt7XUD1tnZAJ6/w4hK0Ey2tr2fu1AEMu0rR2DqLQXsfyryTCBdKWe8Syi6gTMSNXpcXo65K7JOPWcYQtVrn7UXdYW9Cmkz/yCIvxdeN2pAD4ak+AAF02kMpq6hsGIrPLRxxL7IDC1S4Do0WD4IRoDrHsgJS7srQSEZMGRk8bEM1ZhBUkobP4vxZvUzYqctExz3AYa+y/Ul4ahJDZjH/bXGpBa4ReR1HrV+wqhSj+/sX+MlehDKLZsO4yBiGpW5Er4XUpOE+j5gKcxFt3ukidXW9Da6j6jqMmig9iQUkaCdaaukLMjGJupuBE3K2/yrsOBySkmi3IWiW5yD5WL8xJC1yJisjm8X5s0jYsbG63gbXSAAF1g4cmZKnRZr6NXvFXRfNcQuvuvLR1NGOoJxAvC2s7HFUYHWgbL9FPD4CaSq0EOICuFI35a197XMi9n/IrD6vusnLF5WgnWjpLcO/XZrFoL0N6Mi9ROJEuSiDazJp5OtGydZ+5Uf7iUkcYIAhSotlOJIhonTKklvYRHS3Sst0iUmriJavtEyXQn/8E+675xt4KP+bMJmMPhsRZZO0TJfmbn7GAEO0TKVtTYYBhmh54sIvERmKQYaIDMUgQ0SGYpAhIkMxyBCRobIryOikwpRF3Q79tJsRN7ZLx7WpKGMSZs/TLnzd4jHtXytrz6NbV5syU02lufBUmAF0Jqu34ETrRDkiHen3/JenFlBKm6LzknBIST95SThUXiHYupwxqTJlSmpKbSpNbWrMZGkyBUFQ03RGhZND2jSccrrLJH26OBSbMlM3teh8qTCdwqFkKUTnSTuqpNEsl/snl6+Qjie7TqLMyZ6RjM8DKKkkq7DjsJw+U8y2//q2Ep1KYuLwHTVAdDyMRiVlphUtdjHBlP/4QZSdSJJDJTKGYbMDTYX5aLJWKYeLSy3z96nGqqaJKCxFme4FWRLy2wByKsy9aEz6PPRjeKMN1YgbvUXceDnkSNh1IOpuQ3CXmKRr4nAIWwzYAYLoq8iaIBO9FpuysmBVaepKPg+CG9ehAMB0KLa+GChmEZyyASOJUxtAzKZXVl+FWAEc21+KxpqF9Snq7lP6oM1DPFx/J/lqZjF4FGoeYUDJuKcfRGdxPtSAHTVS/6wO2F0e5vClrJI1QWbxEt+Q+voRLJXScnobMNwmr5UEcOys+gaFdKzT3IeyBWaPi7odqA05NNno1D2OGkfuYF3F1499ZnXLkgJrn9K2fhCdQXBKe7RIydZHlC2yJsjEjxLiRxEJImMY1rwhi0tj60+H5DzAmmmLsvMAYkZBYntubDd70DiljkDm65PfWYmX0YFwa/xISFRdb8Oozs4B8/GP9MOeMLIiym1ZE2TwcAmCRzWjjP2JOXu1/Mc96vQBQMEqYN9xdf2i12VDY03s1iiIjGEYpShIGAUF0NkGdMXvGpCkT1G3A8P1k4n5dLX9G+lXk4sviLjlSqNmZBV1O5TRkH4QLUKZWXt0BkG9POxEGZQ9QabQiq6NHikpdjNwYr41jQCGpxqwXvt4zV4MoTkhYXaBtUPcEtdciRJLGC2tVQmjIERCCMYkOpduYyfp03TIC9dW7S1nB+rt1UwAAAeZSURBVAYj2tvaSZJ6zycSQtBSguIkDycLomUQd2QAxPUhF3eIpCyTlnwyl658gMfWlC9Ze1G3A8dW9eFATeqyevxOB4Lbci+RuN9ZiS0uALDgiFfuv7i9jHi4HRMudbM3omyQk0GGiHJH9kyXiOiuxCBDRIZikCEiQzHIEJGh0hZkuIUc0fKUliCTd/99uD77KQMN0TKUllvY3NyNaPniXthEZCgu/BKRoRhkiMhQDDJEZCgGGSIyFIMMERmKQYaIDMUgQ0SGYpAhIkMxyBCRoRhkiMhQDDJEZCgGGSIyFIMMERmKQYaIDMUgQ0SG+no6TvLxDeAnbwh4798EZsfLASYT8MRqE974iQn/4YHU5XPl9V3sddHSSEvSqqd6BFwIZ/FvH+l6ssSEc3tMKcvl2uu70OuipZGW6dJ7/5Y7v4CkWujrlmuvb671N9elJchk8xCaklvo65Zrr2+u9TfXceGXiAzFIENEhmKQISJDMcgQkaEYZO5Cu1tWYO6ICbthwumWpb1V63d2w7+kLdLdLvuCTJ0J0z0rcLrO+FPtblmB3zffed25HvVf77ylTfj9AfHN3ntgBaaTvfGla++V6xwxYfeie2bCBgjIGwZae0wo/DQbbqWYcPpI4mu6u2We50LznKF5vnKU7dLyjd/F2L3WBPwFWPc9EzCaDW8QHXUmtBYJeGWPgNcWWbWl80u0JHtwVEDxV75mAZuliPfV21oqAt6ZMaF1rfY1NWFDEfD2vmzpIxkly4KM+otX22NCLwTlDbm7ZQUOlYv/f/86UDgnoLhXAGDC73tMeBQA/iLglX0CXmtegelvCoiUS8evC8jrFH+Zew+swLaH1HbwKWLbADD22y+xeVQs+8gcsK4ceH/iSzw+IBX4jyY8AP03h7afSn/iHt9wWWw//rzH9wioPQA83gnl+KEeEzb89kt8+D213zc+kK899nw3PhBQfBmY/qEJDyhtSkGteQXmatV+KMfT5LXLAlobgd2A+HzUAVVzAjYjxXOm9NuEuSPAK/uAbYt5rSjjsmu6JP3itUDAxHWgVp7K1JnQWi6+MfL2fIkJpYIJp4+YMCEdz/tXE1qlYfUD5fJxAWN5JnGo3rwC2/IEvCIdj+TJ7Qh4XG7jtwKqvqcOzdflCcjbE/dLO/Aljs+ZcCh+Wte8AoeK5PbFMq3zTAdOHzEBE9J5Y970Ah7fI+D9v4htbR4VR0B5Ur8DRSZxShV3vuJeQRwNydcyATzTYhKnYbXq8/fKB8C2A2mefowCAZiwQXq+er9nQuSakPo5GxCv48YHAvL2CXhtsa8VZVxWBZnda6VfPAAt14BHV5mU4/hAHdW0XJP+UwdU3QNsk9dGaoEHpMBxQykv4J0Z8VjvKuD9f5U/JdXjgGaN5YcmPJAHZS1k7Hf6IxbxTS+g8IcrMCevt8S0D7T8TgDydKuLfYeA4wt9Q0jrNXM9Jqy7B3ikLvF8st4Dsc9H/PP3Wq+A9zXXmB7i81211gTAhNqHgImBRT5nksW+VpRZWRRkTNhWDjxaq75B8JApxYIqxOH1HnU0IE+LFqV5BQ5Jn4J5ewS8v+CK4qfqcZjueAF5YUz4/Q9NeFv+tL+evOTulhV4Zk5QPulvGNmtRXrtsgAUAbubTXj0unBn07U7fq0oU7InyEi/eHmagPHKB+Jw/7VPgQeK1E+s3lXSf0aByD0mbFvgG/z9OXV0JK//AMDubwI35jT9uMNLaLkGPPpt9Y5Q7/dMwFySwtL0YUF9rwMK/yK/ocRRgN75AODRPCAi3VHavVZcm3ntsgCUqwF7d4sJj85h0YvWX5l0za3fBt7XjlgX+pxh6V4rSp+sWfjtXaX+4smUxcLeL3F81Qoc6jHhEKQFWwCAgMd/C0z/UF3UfH/iSzye5Byv9QrYcMSEuR4x0MjtvNYrYFuPdPw6Un86xi2i4rqAvAEAiO0nrgvIkxanEwnYPBzb9+N7hJjHJ+ZWKAu/b8/pXP9A7PlufCCg+HeC0uaN6xBHMqMCnGvFNaRtgLK4mn7iXaZ15cDb8jRxYAHP2YCASI+88Cv9f6GvFWVcWvLJ5O35cknb6z2wArXXuMCn1dtiwvu9i7+lnspcT+xg1+/sBlr3olpzbKlf33SIvy4yTtaMZOZVZ4q5LXvjAwHFDDAaJjxSZAKS3FZfStWtew0/B91dciPILMmX1O5ScgC+LqS6KUOUEbkRZCg5BmDKcpyYEpGhGGSIyFBpCTIm/gFtTlro65Zrr2+u9TfXpSXIPLGar2ouWujrlmuvb671N9elJci88RMTniwx8RMkR5hM4t5Eb/xkYS9Yrry+i70uWhpp+TIeES1fXPglIkMxyBCRoRhkiMhQDDJEZCgGGSIyFIMMERmKQYaIDMUgQ0SGYpAhIkMxyBCRoRhkiMhQDDJEZCgGGSIyFIMMERmKQYaIDMUgQ0SGYpAhIkMxyBCRoRhkiMhQDDJEZCgGGSIyFIMMERmKQYaIDMUgQ0SGYpAhIkMxyBCRoRhkiMhQDDJEZCgGGSIyFIMMERmKQYaIDMUgQ0SGYpAhIkMxyBCRoRhkiMhQDDJEZCgGGSIyFIMMERmKQYaIDPX/AftRK66g5sNMAAAAAElFTkSuQmCC;" parent="1" vertex="1">
          <mxGeometry x="484" y="149.94" width="76" height="72.75" as="geometry" />
        </mxCell>
      </root>
    </mxGraphModel>
  </diagram>
</mxfile>
